<?xml version="1.0" encoding="UTF-8"?>
<svg version="1.1" xmlns="http://www.w3.org/2000/svg" width="1120" height="240">
<path d="M0 0 C369.6 0 739.2 0 1120 0 C1120 79.2 1120 158.4 1120 240 C750.4 240 380.8 240 0 240 C0 160.8 0 81.6 0 0 Z " fill="#FEFEFE" transform="translate(0,0)"/>
<path d="M0 0 C14.63599577 0.34986444 29.29526719 2.23501469 42.671875 8.59375 C43.661875 10.07875 43.661875 10.07875 44.671875 11.59375 C45.991875 11.59375 47.311875 11.59375 48.671875 11.59375 C50.8125 12.46875 50.8125 12.46875 52.921875 13.59375 C53.62828125 13.965 54.3346875 14.33625 55.0625 14.71875 C55.85914063 15.151875 55.85914063 15.151875 56.671875 15.59375 C56.671875 16.25375 56.671875 16.91375 56.671875 17.59375 C58.00798828 18.20863281 58.00798828 18.20863281 59.37109375 18.8359375 C64.55629364 21.59728656 68.42704179 25.58080449 72.671875 29.59375 C73.42855469 30.26277344 74.18523437 30.93179688 74.96484375 31.62109375 C81.81060902 37.93373747 90.9951265 47.79882924 91.9609375 57.49609375 C91.46803576 60.05352656 90.68286504 62.19717999 89.671875 64.59375 C89.20802839 66.44654513 88.74963606 68.3007148 88.296875 70.15625 C87.6484375 72.66015625 87.6484375 72.66015625 86.671875 74.59375 C84.5703125 75.37109375 84.5703125 75.37109375 82.671875 75.59375 C76.22008559 64.99812837 69.99678539 54.27424614 63.81420898 43.52001953 C63.19231689 42.43833496 62.5704248 41.35665039 61.9296875 40.2421875 C61.3742627 39.27458496 60.81883789 38.30698242 60.24658203 37.31005859 C59.18412721 35.4773652 58.0903411 33.66252904 56.96826172 31.86572266 C55.671875 29.59375 55.671875 29.59375 55.671875 27.59375 C55.011875 27.59375 54.351875 27.59375 53.671875 27.59375 C58.58495014 37.83444099 64.1404176 47.43353074 70.21386719 57.03027344 C71.90158669 59.70949112 73.56878361 62.40073229 75.234375 65.09375 C75.78375732 65.95500488 76.33313965 66.81625977 76.89916992 67.70361328 C77.40295166 68.5232959 77.9067334 69.34297852 78.42578125 70.1875 C78.88283447 70.91646484 79.3398877 71.64542969 79.81079102 72.39648438 C80.8951539 75.16350053 80.48120053 76.78224629 79.671875 79.59375 C78.91156982 79.50810791 78.15126465 79.42246582 77.36791992 79.33422852 C73.86520534 78.94036926 70.36229257 78.5482996 66.859375 78.15625 C65.66376953 78.02154297 64.46816406 77.88683594 63.23632812 77.74804688 C56.0544858 76.94571572 48.87195818 76.21211117 41.671875 75.59375 C46.57389981 77.10846734 51.24195173 78.04797611 56.35546875 78.6640625 C57.05583755 78.75001678 57.75620636 78.83597107 58.47779846 78.92453003 C60.68772281 79.19453567 62.89848614 79.45677233 65.109375 79.71875 C66.61920323 79.90182822 68.12896961 80.08541723 69.63867188 80.26953125 C73.31571047 80.71683998 76.99354265 81.15719229 80.671875 81.59375 C81.001875 82.58375 81.331875 83.57375 81.671875 84.59375 C72.431875 93.83375 63.191875 103.07375 53.671875 112.59375 C57.67208716 110.59364392 59.76186841 108.73526829 62.875 105.5859375 C63.3576532 105.10045441 63.8403064 104.61497131 64.33758545 104.11477661 C65.87046062 102.57075134 67.39621504 101.01990176 68.921875 99.46875 C69.96307861 98.41750991 71.00474041 97.36672343 72.046875 96.31640625 C74.59386964 93.74741996 77.13452677 91.17226839 79.671875 88.59375 C80.001875 89.25375 80.331875 89.91375 80.671875 90.59375 C79.78249197 93.10924236 78.82469198 95.51508073 77.76953125 97.9609375 C77.45636963 98.70411224 77.14320801 99.44728699 76.82055664 100.21298218 C75.79868728 102.63453668 74.76645636 105.05153269 73.734375 107.46875 C72.69101511 109.93565473 71.65048604 112.40373995 70.61021423 114.87194824 C69.92296412 116.50227104 69.23486576 118.13223652 68.5459137 119.76184082 C65.87103544 126.09447373 63.26896135 132.45355697 60.734375 138.84375 C60.41154541 139.6569873 60.08871582 140.47022461 59.75610352 141.30810547 C59.05896046 143.06903864 58.36493561 144.83120608 57.671875 146.59375 C60.86071929 142.90246176 62.42539681 138.74005668 64.21875 134.26953125 C64.55304016 133.44986374 64.88733032 132.63019623 65.23175049 131.78569031 C66.30062805 129.16140786 67.36142729 126.53394864 68.421875 123.90625 C69.11924661 122.18923165 69.81715841 120.47243259 70.515625 118.75585938 C71.89371104 115.36768106 73.26902222 111.97839598 74.64257812 108.58837891 C77.62179202 101.24428277 80.64595253 93.91869647 83.671875 86.59375 C87.671875 86.59375 87.671875 86.59375 90.58203125 89.296875 C91.64398365 90.46914285 92.69440787 91.65193491 93.734375 92.84375 C94.26353516 93.43027344 94.79269531 94.01679687 95.33789062 94.62109375 C103.19636217 103.39655131 103.19636217 103.39655131 102.95703125 109.015625 C101.45908478 122.55870264 97.97985776 136.99317862 90.78515625 148.6640625 C89.58459538 150.62488802 89.58459538 150.62488802 88.74609375 153.046875 C86.70920226 157.87615956 83.03434835 161.62659657 79.671875 165.59375 C78.91519531 166.49867188 78.15851563 167.40359375 77.37890625 168.3359375 C68.82969572 178.18217344 58.3970573 186.74305051 46.671875 192.59375 C46.011875 192.59375 45.351875 192.59375 44.671875 192.59375 C44.671875 190.94375 44.671875 189.29375 44.671875 187.59375 C43.681875 189.90375 42.691875 192.21375 41.671875 194.59375 C35.75610876 194.11430228 31.6380174 192.33113442 26.484375 189.46875 C25.69426025 189.04150635 24.90414551 188.6142627 24.09008789 188.17407227 C22.3049234 187.20849355 20.52210795 186.23856384 18.74121094 185.26513672 C15.26068475 183.36983905 11.76853193 181.49715809 8.2734375 179.62890625 C7.64022079 179.29040649 7.00700409 178.95190674 6.354599 178.60314941 C5.07555358 177.91943074 3.79649578 177.23573523 2.51742554 176.55206299 C-1.6018347 174.34824592 -5.71672197 172.13626636 -9.83227539 169.92553711 C-11.32169016 169.13078434 -12.81816121 168.3487319 -14.328125 167.59375 C-14.328125 166.93375 -14.328125 166.27375 -14.328125 165.59375 C-11.358125 165.59375 -8.388125 165.59375 -5.328125 165.59375 C-5.328125 164.93375 -5.328125 164.27375 -5.328125 163.59375 C-7.638125 163.26375 -9.948125 162.93375 -12.328125 162.59375 C-9.36354833 159.36921566 -6.37610184 157.27794829 -2.56640625 155.1328125 C-1.44685547 154.49601563 -0.32730469 153.85921875 0.82617188 153.203125 C2.00364177 152.54119598 3.18137774 151.87974005 4.359375 151.21875 C11.97851833 146.91879502 19.48682124 142.59418273 26.671875 137.59375 C23.18584717 138.90550872 20.05650205 140.43799088 16.86328125 142.3515625 C15.95763428 142.89151855 15.0519873 143.43147461 14.11889648 143.98779297 C13.16700439 144.55900879 12.2151123 145.13022461 11.234375 145.71875 C9.25799766 146.89093724 7.28143511 148.06281227 5.3046875 149.234375 C1.9546886 151.22663046 -1.38451856 153.23429602 -4.7109375 155.265625 C-5.93732101 156.00029888 -7.16386802 156.73469993 -8.390625 157.46875 C-9.43347656 158.10554687 -10.47632812 158.74234375 -11.55078125 159.3984375 C-14.69861375 160.75320086 -16.11791038 160.64222377 -19.328125 159.59375 C-19.658125 158.60375 -19.988125 157.61375 -20.328125 156.59375 C-20.43125 157.2125 -20.534375 157.83125 -20.640625 158.46875 C-21.328125 160.59375 -21.328125 160.59375 -24.328125 162.59375 C-34.25269137 163.36544365 -44.06395765 161.24738727 -53.828125 159.65625 C-57.27541919 159.10152403 -60.72340123 158.55124927 -64.171875 158.00390625 C-64.9858374 157.87424469 -65.7997998 157.74458313 -66.63842773 157.61099243 C-72.19078805 156.73873408 -77.72419443 156.05109557 -83.328125 155.59375 C-83.658125 154.60375 -83.988125 153.61375 -84.328125 152.59375 C-84.988125 152.59375 -85.648125 152.59375 -86.328125 152.59375 C-92.78194619 138.47148396 -97.10657057 126.47395753 -98.328125 110.59375 C-79.848125 110.59375 -61.368125 110.59375 -42.328125 110.59375 C-70.048125 109.60375 -70.048125 109.60375 -98.328125 108.59375 C-98.328125 105.59375 -98.328125 105.59375 -96.328125 102.59375 C-97.813125 103.08875 -97.813125 103.08875 -99.328125 103.59375 C-100.21524202 88.67704162 -96.91589684 74.33127604 -91.328125 60.59375 C-89.328125 60.59375 -89.328125 60.59375 -87.203125 62.59375 C-86.584375 63.25375 -85.965625 63.91375 -85.328125 64.59375 C-86.3490625 63.48 -86.3490625 63.48 -87.390625 62.34375 C-89.328125 59.59375 -89.328125 59.59375 -89.1484375 57.78125 C-86.17934272 49.86366392 -80.89938297 41.95021882 -75.328125 35.59375 C-74.998125 35.59375 -74.668125 35.59375 -74.328125 35.59375 C-73.998125 42.85375 -73.668125 50.11375 -73.328125 57.59375 C-72.998125 49.67375 -72.668125 41.75375 -72.328125 33.59375 C-69.853125 36.06875 -69.853125 36.06875 -67.328125 38.59375 C-66.008125 39.25375 -64.688125 39.91375 -63.328125 40.59375 C-65.638125 37.95375 -67.948125 35.31375 -70.328125 32.59375 C-65.00988475 30.82100325 -59.61673931 33.31147924 -54.328125 34.71875 C-52.52601562 35.16347656 -52.52601562 35.16347656 -50.6875 35.6171875 C-49.53765625 35.92140625 -48.3878125 36.225625 -47.203125 36.5390625 C-46.14867187 36.81250488 -45.09421875 37.08594727 -44.0078125 37.36767578 C-40.71525727 38.87416379 -39.96147991 40.4380018 -38.328125 43.59375 C-36.39411583 44.66129834 -36.39411583 44.66129834 -34.328125 44.59375 C-33.338125 43.93375 -32.348125 43.27375 -31.328125 42.59375 C-30.338125 42.59375 -29.348125 42.59375 -28.328125 42.59375 C-28.658125 41.60375 -28.988125 40.61375 -29.328125 39.59375 C-28.833125 38.60375 -28.833125 38.60375 -28.328125 37.59375 C-28.988125 37.59375 -29.648125 37.59375 -30.328125 37.59375 C-28.86812546 33.29267028 -26.69374414 30.21284757 -23.890625 26.65625 C-23.45540527 26.10066406 -23.02018555 25.54507813 -22.57177734 24.97265625 C-21.64403285 23.78979027 -20.7136199 22.60901309 -19.78076172 21.43017578 C-18.30221384 19.56099306 -16.83180581 17.68565885 -15.36328125 15.80859375 C-12.69247748 12.39759706 -10.01450834 8.99249697 -7.328125 5.59375 C-6.71195312 4.645 -6.09578125 3.69625 -5.4609375 2.71875 C-3.328125 0.59375 -3.328125 0.59375 0 0 Z " fill="#899BA9" transform="translate(112.328125,16.40625)"/>
<path d="M0 0 C1.28261719 0.06960938 2.56523438 0.13921875 3.88671875 0.2109375 C31.92987249 2.76289285 57.53050318 17.04910513 76 38 C85.68202192 50.32686693 93.09837744 63.79124797 97 79 C97.28617188 80.06605469 97.57234375 81.13210937 97.8671875 82.23046875 C105.03845197 109.72031589 100.34778874 138.89048824 86.19921875 163.46484375 C73.11835441 185.05271918 53.54168414 200.574052 30 209.3125 C29.09846191 209.65031494 28.19692383 209.98812988 27.26806641 210.33618164 C16.21587212 214.27655518 5.43436534 215.37027293 -6.25 215.3125 C-7.43295654 215.30758545 -8.61591309 215.3026709 -9.8347168 215.29760742 C-38.31716415 214.9175296 -63.67116047 203.29761752 -84.27734375 183.875 C-97.49066959 169.92233455 -106.51958725 153.37425206 -112 135 C-112.18691406 134.38721191 -112.37382813 133.77442383 -112.56640625 133.14306641 C-114.38795278 126.300963 -114.30313818 119.39449408 -114.26074219 112.36328125 C-114.25009114 110.2679299 -114.26064914 108.17344918 -114.2734375 106.078125 C-114.30689677 76.41265125 -103.07514679 51.62112163 -82.75 30.3125 C-60.48802017 8.8019794 -30.74366098 -1.67599953 0 0 Z M-23.31884766 20.53857422 C-25.11082644 23.16226432 -26.99678932 25.69221933 -28.91796875 28.22265625 C-31.4282438 31.53907148 -33.93504048 34.85660774 -36.39453125 38.2109375 C-36.89831299 38.89462402 -37.40209473 39.57831055 -37.92114258 40.28271484 C-39.1773223 41.94424611 -39.1773223 41.94424611 -39 44 C-38.34 44 -37.68 44 -37 44 C-37.33 44.99 -37.66 45.98 -38 47 C-37.67 47.66 -37.34 48.32 -37 49 C-38.33333333 49.33333333 -39.66666667 49.66666667 -41 50 C-41.70125 50.20625 -42.4025 50.4125 -43.125 50.625 C-45 51 -45 51 -47 50 C-47.41507813 49.19675293 -47.83015625 48.39350586 -48.2578125 47.56591797 C-50.49830919 44.2660833 -52.05789739 43.93516934 -55.875 42.9453125 C-57.02484375 42.64109375 -58.1746875 42.336875 -59.359375 42.0234375 C-61.16148438 41.57871094 -61.16148438 41.57871094 -63 41.125 C-64.20140625 40.8053125 -65.4028125 40.485625 -66.640625 40.15625 C-72.82630408 38.25781868 -72.82630408 38.25781868 -79 39 C-75.535 42.96 -75.535 42.96 -72 47 C-76 45 -76 45 -81 40 C-81.33 47.92 -81.66 55.84 -82 64 C-82.33 56.74 -82.66 49.48 -83 42 C-86.99427203 45.99427203 -89.38273683 48.90518576 -92.1875 53.625 C-92.86167969 54.75164062 -93.53585938 55.87828125 -94.23046875 57.0390625 C-94.81441406 58.01617187 -95.39835937 58.99328125 -96 60 C-96.66 60.99 -97.32 61.98 -98 63 C-97.67339287 66.37494032 -96.11635213 68.42357133 -94 71 C-94.61875 70.34 -95.2375 69.68 -95.875 69 C-97.75637427 66.7715451 -97.75637427 66.7715451 -100 67 C-105.19302064 81.40328366 -108.56881529 94.51558387 -108 110 C-106.515 109.505 -106.515 109.505 -105 109 C-105.99 110.65 -106.98 112.3 -108 114 C-106.2976361 115.7023639 -104.07838351 115.21884619 -101.74584961 115.29711914 C-100.60901733 115.33760376 -99.47218506 115.37808838 -98.30090332 115.4197998 C-97.09687866 115.45786743 -95.892854 115.49593506 -94.65234375 115.53515625 C-93.55249146 115.57346558 -92.45263916 115.6117749 -91.31945801 115.65124512 C-87.19231638 115.79357992 -83.06488889 115.92752554 -78.9375 116.0625 C-65.1084375 116.5265625 -65.1084375 116.5265625 -51 117 C-69.48 117 -87.96 117 -107 117 C-106.1836306 128.49809091 -106.1836306 128.49809091 -103.25 139.125 C-102.98558105 139.88345215 -102.72116211 140.6419043 -102.44873047 141.42333984 C-100.31036873 147.43916182 -97.84610498 153.28260326 -95 159 C-94.34 159 -93.68 159 -93 159 C-92.67 159.99 -92.34 160.98 -92 162 C-90.72511719 162.17015625 -89.45023438 162.3403125 -88.13671875 162.515625 C-86.32026561 162.76006848 -84.50386375 163.00489321 -82.6875 163.25 C-81.71651367 163.38059814 -80.74552734 163.51119629 -79.74511719 163.64575195 C-74.11485813 164.41153474 -68.4943175 165.22152842 -62.87890625 166.08984375 C-61.69272705 166.27192383 -60.50654785 166.45400391 -59.28442383 166.64160156 C-56.97729132 166.99794254 -54.67107803 167.36030187 -52.3659668 167.72949219 C-40.76401361 170.03738832 -40.76401361 170.03738832 -30 167 C-29.27617533 164.94074861 -29.27617533 164.94074861 -29 163 C-28.34 164.32 -27.68 165.64 -27 167 C-22.31188508 166.46361835 -19.1125378 165.20779348 -15.0625 162.8125 C-14.49128418 162.47734375 -13.92006836 162.1421875 -13.33154297 161.796875 C-11.21242785 160.54514145 -9.10569374 159.27419017 -7 158 C-6.04496582 157.4229834 -5.08993164 156.8459668 -4.10595703 156.25146484 C2.60872212 152.18833579 9.30905161 148.10207537 16 144 C16.33 144.33 16.66 144.66 17 145 C16.41734375 145.34144043 15.8346875 145.68288086 15.234375 146.03466797 C5.3134094 151.85504578 -4.60430408 157.67956995 -14.375 163.75 C-15.05175781 164.16749512 -15.72851562 164.58499023 -16.42578125 165.01513672 C-17.96895546 165.98125186 -19.48779964 166.98608916 -21 168 C-21 168.33 -21 168.66 -21 169 C-18.69 169.33 -16.38 169.66 -14 170 C-14 170.66 -14 171.32 -14 172 C-16.97 172 -19.94 172 -23 172 C-23 172.66 -23 173.32 -23 174 C-21.92238403 174.5576001 -21.92238403 174.5576001 -20.82299805 175.12646484 C3.37960529 187.65337254 3.37960529 187.65337254 14.875 193.6875 C15.63337158 194.08437012 16.39174316 194.48124023 17.1730957 194.89013672 C20.1206009 196.44102881 23.00039868 198.00024746 25.83203125 199.7578125 C28.4025501 201.23065033 30.08419145 201.24992645 33 201 C33.99 198.69 34.98 196.38 36 194 C36 195.65 36 197.3 36 199 C53.17523416 192.58995725 70.51256978 176.51872515 80 161 C80.14953125 160.3915625 80.2990625 159.783125 80.453125 159.15625 C81.22507763 156.11255107 82.75138297 153.63115218 84.25 150.875 C89.52705942 140.76086315 92.79767846 129.34531069 94 118 C94.22623047 116.04513672 94.22623047 116.04513672 94.45703125 114.05078125 C94.3820322 108.77923818 91.16727484 105.82998483 87.6875 102.1875 C86.79514648 101.20620117 86.79514648 101.20620117 85.88476562 100.20507812 C83.32208719 97.40188015 80.69562276 94.67543461 78 92 C74.94199869 92.65397501 74.94199869 92.65397501 73.95829773 94.77238464 C73.64552383 95.54512222 73.33274994 96.3178598 73.01049805 97.11401367 C72.6496965 97.98970505 72.28889496 98.86539642 71.91716003 99.7676239 C71.53586441 100.7247377 71.15456879 101.6818515 70.76171875 102.66796875 C70.35846878 103.65436844 69.95521881 104.64076813 69.53974915 105.65705872 C68.24524312 108.82974753 66.96603835 112.00834719 65.6875 115.1875 C64.83762895 117.28102162 63.98672906 119.37412589 63.13476562 121.46679688 C61.89307311 124.51703565 60.65208826 127.56753179 59.41549683 130.61984253 C56.37311735 138.12285652 53.24053389 145.58039025 50 153 C50 149.04818709 51.51259574 146.00370667 53.03515625 142.4296875 C53.35149521 141.67519318 53.66783417 140.92069885 53.99375916 140.14334106 C55.01168637 137.71842817 56.03687345 135.29666513 57.0625 132.875 C57.72641323 131.29838829 58.38982968 129.72156728 59.05273438 128.14453125 C59.3801059 127.36611877 59.70747742 126.5877063 60.04476929 125.78570557 C60.70462657 124.21598006 61.36415255 122.64611525 62.02334595 121.07611084 C63.7022288 117.07877072 65.38984037 113.08558374 67.09326172 109.09863281 C67.74864954 107.54764312 68.40377101 105.99654085 69.05859375 104.4453125 C69.37014908 103.72423309 69.68170441 103.00315369 70.00270081 102.26022339 C70.72800075 100.53059228 71.37224653 98.76737358 72 97 C71.67 96.34 71.34 95.68 71 95 C63.08 102.92 55.16 110.84 47 119 C46.67 118.67 46.34 118.34 46 118 C54.91 109.09 63.82 100.18 73 91 C72.67 90.01 72.34 89.02 72 88 C71.06728271 87.88930176 70.13456543 87.77860352 69.17358398 87.66455078 C65.68602847 87.24787386 62.19916975 86.82607388 58.71264648 86.40087891 C57.20865964 86.218509 55.70442925 86.03813532 54.19995117 85.85986328 C52.02714734 85.60203638 49.85534478 85.33684537 47.68359375 85.0703125 C46.37962646 84.91320801 45.07565918 84.75610352 43.73217773 84.59423828 C39.99541248 83.99926957 36.60754181 83.11472429 33 82 C41.41145222 82.72239658 49.79843997 83.6173175 58.1875 84.5625 C59.42564453 84.70107422 60.66378906 84.83964844 61.93945312 84.98242188 C64.9597505 85.32060189 67.97992804 85.65981387 71 86 C71.86316425 83.08463848 72.20643102 81.51752978 71.06298828 78.65087891 C70.57040527 77.85085449 70.07782227 77.05083008 69.5703125 76.2265625 C69.02632812 75.32647461 68.48234375 74.42638672 67.921875 73.49902344 C67.32890625 72.5505957 66.7359375 71.60216797 66.125 70.625 C65.52945313 69.64563477 64.93390625 68.66626953 64.3203125 67.65722656 C62.55903101 64.76382825 60.78059002 61.88154205 59 59 C57.32461379 56.25521833 55.65936991 53.50448874 54 50.75 C53.46185669 49.86066772 53.46185669 49.86066772 52.9128418 48.95336914 C49.99954804 44.09879676 47.40008715 39.12581427 45 34 C45.66 34 46.32 34 47 34 C47.31324219 35.17175781 47.31324219 35.17175781 47.6328125 36.3671875 C49.49300138 41.3099751 52.1495104 45.61425349 54.875 50.125 C55.44565186 51.07971191 56.01630371 52.03442383 56.60424805 53.01806641 C58.39742265 56.01532482 60.19852008 59.00772777 62 62 C63.1763216 63.963218 64.35211545 65.92675233 65.52734375 67.890625 C68.34549675 72.59740896 71.170122 77.30025716 74 82 C75.96793819 81.78042857 75.96793819 81.78042857 78 81 C79.16837328 78.20070977 80.03192936 75.65612454 80.8125 72.75 C81.04130859 71.98558594 81.27011719 71.22117187 81.50585938 70.43359375 C83.17700676 64.51558558 83.24392571 61.29435187 80.2421875 55.7578125 C75.59525555 48.43760751 70.42963793 41.96310648 64.3125 35.8125 C63.69552246 35.18939941 63.07854492 34.56629883 62.44287109 33.92431641 C57.99973873 29.602134 53.54327378 26.77163689 48 24 C48 23.34 48 22.68 48 22 C46.56988027 21.13353333 45.13059381 20.28218171 43.6875 19.4375 C42.88699219 18.96183594 42.08648437 18.48617188 41.26171875 17.99609375 C38.90841521 16.657319 38.90841521 16.657319 36 18 C35.48308594 17.39414062 34.96617187 16.78828125 34.43359375 16.1640625 C26.99186024 9.54653383 13.57598254 7.9409925 4 7 C2.70964844 6.77699219 1.41929688 6.55398437 0.08984375 6.32421875 C-12.34563771 4.6673487 -16.76065187 10.76712589 -23.31884766 20.53857422 Z " fill="#8296A4" transform="translate(121,10)"/>
<path d="M0 0 C7.77722237 4.1742154 12.1575098 11.36986675 15 19.5 C18.66460716 31.7418878 17.96564279 49.68103027 12.3515625 61.17578125 C11.90554688 61.94277344 11.45953125 62.70976562 11 63.5 C10.38125 64.655 9.7625 65.81 9.125 67 C4.47452181 72.47115081 -1.20304994 76.08775971 -8.41796875 76.87109375 C-16.76438685 77.01812909 -23.07961552 76.41347298 -30 71.5 C-30.99 70.51 -31.98 69.52 -33 68.5 C-33.33 81.7 -33.66 94.9 -34 108.5 C-40.6 108.5 -47.2 108.5 -54 108.5 C-54 72.53 -54 36.56 -54 -0.5 C-48.39 -0.5 -42.78 -0.5 -37 -0.5 C-35 5.5 -35 5.5 -35 9.5 C-34.34 9.5 -33.68 9.5 -33 9.5 C-32.75121094 8.90574219 -32.50242187 8.31148437 -32.24609375 7.69921875 C-30.81934287 5.18115999 -29.39572921 4.00267908 -27.0625 2.3125 C-26.37285156 1.80332031 -25.68320312 1.29414062 -24.97265625 0.76953125 C-18.4971207 -3.39789262 -7.01129083 -2.75356923 0 0 Z " fill="#7F93A1" transform="translate(742,96.5)"/>
<path d="M0 0 C1.31726074 0.00858032 1.31726074 0.00858032 2.66113281 0.01733398 C12.6947487 0.29173398 21.12402022 3.36011203 28.49609375 10.33203125 C38.1587882 22.27589632 38.4158714 35.86126741 37.25 50.5 C35.84003377 58.69869254 31.68875115 66.21445801 25.25 71.5 C14.04347901 78.84220341 2.14916135 80.28450168 -10.95703125 77.921875 C-20.69422762 74.85723523 -27.63970867 68.26868339 -32.3125 59.3125 C-37.28337527 48.79339567 -37.86697735 33.36763641 -34.125 22.3125 C-29.92334847 12.82205634 -23.58374813 6.11706688 -14.1015625 1.86328125 C-9.4053303 0.18201489 -4.95501443 -0.03756681 0 0 Z " fill="#7F93A2" transform="translate(849.75,94.5)"/>
<path d="M0 0 C1.49273437 -0.0309375 1.49273437 -0.0309375 3.015625 -0.0625 C13.00115176 -0.11464374 20.91672411 1.4576743 28.25 8.48046875 C32.99247604 13.64475155 34.00338397 18.19337174 33.98852539 25.02832031 C33.98841209 26.76967255 33.98841209 26.76967255 33.98829651 28.54620361 C33.98313522 29.79423767 33.97797394 31.04227173 33.97265625 32.328125 C33.9712413 33.60983582 33.96982635 34.89154663 33.96836853 36.21209717 C33.96455901 39.6118364 33.95474214 43.0115326 33.94366455 46.41125488 C33.93341674 49.883539 33.9288637 53.3558301 33.92382812 56.828125 C33.91311841 63.63543608 33.89553433 70.44271154 33.875 77.25 C29.255 77.25 24.635 77.25 19.875 77.25 C18.8984375 74.93880208 17.921875 72.62760417 16.9453125 70.31640625 C16.0505063 68.09253285 16.0505063 68.09253285 13.875 67.25 C13.689375 67.806875 13.50375 68.36375 13.3125 68.9375 C10.07181418 74.15077719 4.66218042 76.71041756 -1.125 78.25 C-8.59815891 79.0959826 -17.97913239 79.79806966 -24.546875 75.65625 C-30.10051335 70.70746335 -32.84015611 66.00993941 -33.3984375 58.640625 C-33.87060505 45.03465792 -33.87060505 45.03465792 -29.72265625 39.7890625 C-18.86758493 29.33209893 -4.65563738 29.90368892 9.484375 30.14453125 C10.94796551 30.17759177 12.41153177 30.2119092 13.875 30.25 C13.47717121 28.47483971 13.05596339 26.70490837 12.625 24.9375 C12.27695312 23.45830078 12.27695312 23.45830078 11.921875 21.94921875 C10.70217161 18.80438649 9.84279112 17.80925978 6.875 16.25 C-0.98326672 14.91829373 -8.04474888 16.8211096 -15.41015625 19.47265625 C-18.125 20.25 -18.125 20.25 -21.125 19.25 C-22.546875 16.8515625 -22.546875 16.8515625 -23.875 13.875 C-24.32359375 12.89789063 -24.7721875 11.92078125 -25.234375 10.9140625 C-26.125 8.25 -26.125 8.25 -25.125 5.25 C-22.98046875 4.1171875 -22.98046875 4.1171875 -20.3125 3.125 C-19.43980469 2.79242188 -18.56710937 2.45984375 -17.66796875 2.1171875 C-11.71324311 0.08654373 -6.26109666 0.03170176 0 0 Z " fill="#7F93A2" transform="translate(431.125,94.75)"/>
<path d="M0 0 C18.81 0 37.62 0 57 0 C57 5.61 57 11.22 57 17 C45.12 17 33.24 17 21 17 C21 24.26 21 31.52 21 39 C31.89 39 42.78 39 54 39 C54 44.61 54 50.22 54 56 C43.11 56 32.22 56 21 56 C21 64.58 21 73.16 21 82 C32.88 82 44.76 82 57 82 C57 87.61 57 93.22 57 99 C38.19 99 19.38 99 0 99 C0 66.33 0 33.66 0 0 Z " fill="#7E92A1" transform="translate(531,73)"/>
<path d="M0 0 C1.2055957 -0.02416992 1.2055957 -0.02416992 2.43554688 -0.04882812 C11.86272071 -0.05641234 19.87336116 2.68485338 26.6875 9.3125 C35.82432018 20.61703583 34.6875 28.52153918 34.6875 44.3125 C18.8475 44.3125 3.0075 44.3125 -13.3125 44.3125 C-12.30420709 53.04041254 -12.30420709 53.04041254 -7.3125 59.3125 C-0.36767078 63.79770221 8.08320963 63.16352997 15.984375 61.703125 C20.99137001 60.48251428 25.79263457 58.94412181 30.6875 57.3125 C30.6875 62.5925 30.6875 67.8725 30.6875 73.3125 C21.93391394 76.83667101 15.61838275 78.53978118 6.1875 78.625 C4.62902344 78.66850586 4.62902344 78.66850586 3.0390625 78.71289062 C-7.40858703 78.79756609 -16.21569679 76.12250949 -24.3046875 69.3671875 C-33.69559102 59.7570411 -34.71634079 48.72947885 -34.67822266 35.95288086 C-34.5537591 28.78252387 -33.99331892 22.61919909 -30.3125 16.3125 C-29.88839844 15.58289063 -29.46429687 14.85328125 -29.02734375 14.1015625 C-22.1192332 3.749018 -12.00764263 -0.04746104 0 0 Z " fill="#7F93A2" transform="translate(998.3125,94.6875)"/>
<path d="M0 0 C6.93 0 13.86 0 21 0 C24.37815354 9.00840945 24.37815354 9.00840945 25.74584961 13.22827148 C26.05304428 14.17383408 26.36023895 15.11939667 26.67674255 16.09361267 C27.15966515 17.59221581 27.15966515 17.59221581 27.65234375 19.12109375 C27.99374893 20.17925797 28.33515411 21.23742218 28.68690491 22.32765198 C29.40658101 24.56206366 30.12510067 26.79684811 30.8425293 29.03198242 C31.92469804 32.39768404 33.01595759 35.76035023 34.10742188 39.12304688 C37.61296802 49.99827449 40.90282098 60.81010099 43.31079102 71.98461914 C43.85249027 74.9022104 43.85249027 74.9022104 45 77 C45.25289795 75.8241333 45.5057959 74.6482666 45.76635742 73.43676758 C49.16259337 58.18935159 53.82594049 43.43392149 58.68743896 28.59857178 C59.74626349 25.36130446 60.79550883 22.12093443 61.84570312 18.88085938 C63.88859374 12.58442737 65.94144432 6.29132699 68 0 C74.93 0 81.86 0 89 0 C87.87503437 7.87475944 87.87503437 7.87475944 86.65576172 11.41088867 C86.38339188 12.2108577 86.11102203 13.01082672 85.83039856 13.83503723 C85.53316391 14.68740463 85.23592926 15.53977203 84.9296875 16.41796875 C84.61629929 17.3330571 84.30291107 18.24814545 83.98002625 19.19096375 C82.95086295 22.1918542 81.91302323 25.18966396 80.875 28.1875 C80.15817299 30.27144091 79.44195358 32.35559092 78.72631836 34.43994141 C77.61660069 37.67110866 76.5061821 40.90202385 75.39323425 44.13208008 C72.78599695 51.6992518 70.20381791 59.2745934 67.63671875 66.85546875 C66.94485821 68.89625176 66.25296432 70.93702346 65.56103516 72.9777832 C64.56412654 75.91832828 63.56787719 78.85908671 62.57391357 81.80062866 C61.65747014 84.51124867 60.73737869 87.22060357 59.81640625 89.9296875 C59.54422775 90.73782394 59.27204926 91.54596039 58.99162292 92.37858582 C57.11396543 97.88603457 57.11396543 97.88603457 56 99 C54.29227642 99.08713831 52.58101351 99.10700007 50.87109375 99.09765625 C49.83662109 99.09443359 48.80214844 99.09121094 47.73632812 99.08789062 C46.64771484 99.07951172 45.55910156 99.07113281 44.4375 99.0625 C42.7987793 99.05573242 42.7987793 99.05573242 41.12695312 99.04882812 C38.41791505 99.03699826 35.70898401 99.02051543 33 99 C32.79305511 98.38947281 32.58611023 97.77894562 32.37289429 97.1499176 C30.14143514 90.56698755 27.90933745 83.98427423 25.6769104 77.40167236 C24.81115153 74.84879507 23.94558235 72.29585356 23.08016968 69.74285889 C18.61235357 56.56309306 14.13992322 43.38504518 9.62109375 30.22265625 C9.12684906 28.78168327 9.12684906 28.78168327 8.62261963 27.31159973 C7.0905161 22.84519121 5.55544063 18.3798469 4.01513672 13.91625977 C3.47480625 12.34265484 2.93459658 10.76900844 2.39453125 9.1953125 C2.14859726 8.48653458 1.90266327 7.77775665 1.64927673 7.04750061 C0 2.22715731 0 2.22715731 0 0 Z " fill="#7F93A2" transform="translate(259,73)"/>
<path d="M0 0 C19.53193621 -2.53978665 19.53193621 -2.53978665 24.99023438 1.45751953 C28.17216126 5.18248745 30.12982189 9.43692412 32.02050781 13.92236328 C33.59964594 17.27193095 35.76476641 20.05707134 38 23 C38.38857178 22.3387915 38.77714355 21.67758301 39.17749023 20.99633789 C40.92925859 18.01746643 42.68334712 15.03996787 44.4375 12.0625 C45.04916016 11.02158203 45.66082031 9.98066406 46.29101562 8.90820312 C46.87431641 7.91884766 47.45761719 6.92949219 48.05859375 5.91015625 C48.86768188 4.53549194 48.86768188 4.53549194 49.69311523 3.13305664 C51 1 51 1 52 0 C53.78071246 -0.08726223 55.5648314 -0.10699041 57.34765625 -0.09765625 C58.42724609 -0.09443359 59.50683594 -0.09121094 60.61914062 -0.08789062 C62.32360352 -0.07532227 62.32360352 -0.07532227 64.0625 -0.0625 C65.77276367 -0.05573242 65.77276367 -0.05573242 67.51757812 -0.04882812 C70.34510351 -0.03699747 73.1725264 -0.0205141 76 0 C72.38233131 5.79271315 68.68385744 11.50776675 64.78125 17.11328125 C64.07742188 18.13357422 63.37359375 19.15386719 62.6484375 20.20507812 C61.19687892 22.30455968 59.73297694 24.3955526 58.2578125 26.47851562 C57.56429687 27.49236328 56.87078125 28.50621094 56.15625 29.55078125 C55.52525391 30.45481689 54.89425781 31.35885254 54.24414062 32.2902832 C52.6131571 35.84253716 52.80234714 37.28322554 54 41 C55.52265957 43.79869119 57.30011205 46.38208261 59.12890625 48.98828125 C59.63800034 49.73208542 60.14709442 50.47588959 60.6716156 51.24223328 C62.29209902 53.60591779 63.92667049 55.95941662 65.5625 58.3125 C67.19898525 60.68531967 68.83252452 63.06012436 70.46409607 65.43632507 C71.47888805 66.9122097 72.49709229 68.38575477 73.51893616 69.85676575 C77 74.89100041 77 74.89100041 77 76 C69.11296014 77.59230212 60.6747135 78.96403571 53 76 C45.94609572 69.36592383 41.80646176 59.76978935 38 51 C35.31054517 54.16810453 33.38678258 57.01816001 31.828125 60.86328125 C26.71245837 72.05761132 26.71245837 72.05761132 22 76 C14.28388156 78.45666069 5.87033992 77.24107738 -2 76 C2.87925751 68.29481153 7.82367539 60.63463905 12.8125 53 C13.47958984 51.97777344 14.14667969 50.95554688 14.83398438 49.90234375 C19.65749008 42.51376488 19.65749008 42.51376488 22 39 C21.69228582 34.8931829 20.08273449 32.18300394 17.83203125 28.796875 C16.86233398 27.32541016 16.86233398 27.32541016 15.87304688 25.82421875 C15.19306641 24.80972656 14.51308594 23.79523438 13.8125 22.75 C13.15185547 21.75097656 12.49121094 20.75195312 11.81054688 19.72265625 C9.28635383 15.91020278 6.75517448 12.10379419 4.17333984 8.33007812 C3.3508374 7.12254883 3.3508374 7.12254883 2.51171875 5.890625 C2.02533936 5.18454102 1.53895996 4.47845703 1.0378418 3.75097656 C0 2 0 2 0 0 Z " fill="#7F93A1" transform="translate(599,96)"/>
<path d="M0 0 C6.6 0 13.2 0 20 0 C20.06786316 11.72675384 20.12286663 23.45337656 20.15543652 35.18028259 C20.17107093 40.62595942 20.19226869 46.07149455 20.22631836 51.51708984 C20.25899095 56.77554715 20.27686974 62.03386843 20.28463173 67.29241943 C20.29016105 69.29541158 20.30095844 71.29839656 20.31719017 73.30133057 C20.33906936 76.11380923 20.34196254 78.92573073 20.34057617 81.73828125 C20.351362 82.56043625 20.36214783 83.38259125 20.3732605 84.22966003 C20.33801805 90.86698855 18.82508679 96.0257845 15.3125 101.75 C8.794709 108.09163448 1.26257122 109.16963109 -7.5 109.125 C-8.25925781 109.12886719 -9.01851563 109.13273437 -9.80078125 109.13671875 C-13.43531802 109.13035354 -16.45137515 108.88715621 -20 108 C-20 102.72 -20 97.44 -20 92 C-17.958125 92.103125 -15.91625 92.20625 -13.8125 92.3125 C-8.39119773 92.36395014 -8.39119773 92.36395014 -3.75 89.6875 C-0.79774774 85.15368403 -0.83357732 81.18430951 -0.79467773 75.94848633 C-0.77982834 74.71887932 -0.77982834 74.71887932 -0.76467896 73.46443176 C-0.73307991 70.75366102 -0.7083128 68.04287275 -0.68359375 65.33203125 C-0.66302285 63.45301354 -0.64202634 61.57400045 -0.62062073 59.69499207 C-0.56541414 54.7482985 -0.5159986 49.80156326 -0.46777344 44.85479736 C-0.41754813 39.80745738 -0.36186743 34.76017793 -0.30664062 29.71289062 C-0.1990763 19.80864353 -0.09813155 9.90434505 0 0 Z " fill="#7E92A1" transform="translate(487,96)"/>
<path d="M0 0 C6.6 0 13.2 0 20 0 C20 34.98 20 69.96 20 106 C13.4 106 6.8 106 0 106 C0 71.02 0 36.04 0 0 Z " fill="#7E92A1" transform="translate(776,66)"/>
<path d="M0 0 C1.24523438 0.02707031 2.49046875 0.05414063 3.7734375 0.08203125 C4.71445313 0.11683594 5.65546875 0.15164062 6.625 0.1875 C6.6522616 2.22909095 6.67151345 4.27078963 6.6875 6.3125 C6.69910156 7.44945313 6.71070313 8.58640625 6.72265625 9.7578125 C6.630327 13.0004156 6.23889906 16.00682612 5.625 19.1875 C4.779375 19.21328125 3.93375 19.2390625 3.0625 19.265625 C-6.80699853 19.74433528 -6.80699853 19.74433528 -15.375 24.1875 C-20.40918079 29.94900178 -21.11302121 35.38125861 -21.08203125 42.8125 C-21.09715256 43.80000244 -21.11227386 44.78750488 -21.12785339 45.80493164 C-21.17054941 48.93269001 -21.17955108 52.05947991 -21.1875 55.1875 C-21.21065831 57.31903584 -21.2360264 59.45054889 -21.26367188 61.58203125 C-21.33047239 66.78437436 -21.35161853 71.98405966 -21.375 77.1875 C-28.305 77.1875 -35.235 77.1875 -42.375 77.1875 C-42.375 52.1075 -42.375 27.0275 -42.375 1.1875 C-37.095 1.1875 -31.815 1.1875 -26.375 1.1875 C-25.055 5.1475 -23.735 9.1075 -22.375 13.1875 C-21.79492188 12.50042969 -21.21484375 11.81335938 -20.6171875 11.10546875 C-19.83601563 10.20441406 -19.05484375 9.30335937 -18.25 8.375 C-17.48429687 7.48167969 -16.71859375 6.58835937 -15.9296875 5.66796875 C-10.94940111 0.83236958 -6.84954106 -0.19385494 0 0 Z " fill="#7F93A2" transform="translate(1092.375,94.8125)"/>
<path d="M0 0 C-0.33 6.27 -0.66 12.54 -1 19 C-8.6875 19.8125 -8.6875 19.8125 -11.08081055 20.04614258 C-15.43897454 20.55034286 -18.29933206 21.49398182 -22 24 C-22.66 24 -23.32 24 -24 24 C-24.28875 24.721875 -24.5775 25.44375 -24.875 26.1875 C-26 29 -26 29 -27.04443359 31.05737305 C-28.42956089 35.32281486 -28.35774863 39.4349094 -28.4140625 43.89453125 C-28.43342865 44.84188644 -28.4527948 45.78924164 -28.4727478 46.76530457 C-28.53236371 49.78094577 -28.57885705 52.79662552 -28.625 55.8125 C-28.66319633 57.86134446 -28.70224902 59.91017314 -28.7421875 61.95898438 C-28.83965702 66.97257259 -28.91936859 71.98599971 -29 77 C-35.6 77 -42.2 77 -49 77 C-49 51.92 -49 26.84 -49 1 C-43.72 1 -38.44 1 -33 1 C-30.71428571 9.42857143 -30.71428571 9.42857143 -31 14 C-30.34 14 -29.68 14 -29 14 C-28.77183594 13.26265625 -28.54367187 12.5253125 -28.30859375 11.765625 C-26.73240996 8.43446642 -24.96968498 6.98695291 -22.0625 4.75 C-21.18722656 4.06421875 -20.31195312 3.3784375 -19.41015625 2.671875 C-13.6014547 -1.35749982 -6.79977634 -0.06238327 0 0 Z " fill="#7E92A1" transform="translate(954,95)"/>
<path d="M0 0 C1.8359375 1.59375 1.8359375 1.59375 3 4 C2.6640625 6.90625 2.6640625 6.90625 1.625 10.5 C1.23379636 11.9083331 0.84464966 13.31723842 0.45703125 14.7265625 C0.11599365 15.93940918 0.11599365 15.93940918 -0.23193359 17.17675781 C-1.82895653 23.0470608 -3.23469971 28.96769629 -4.6875 34.875 C-5.29277365 37.33142061 -5.90066204 39.78719909 -6.51171875 42.2421875 C-6.77428467 43.3029248 -7.03685059 44.36366211 -7.30737305 45.45654297 C-8 48 -8 48 -9 50 C-13.03288635 51.44981315 -15.53583412 51.00595597 -19.29296875 49.26171875 C-20.93308281 48.42020747 -22.56419871 47.56100345 -24.1875 46.6875 C-25.06317627 46.2325415 -25.93885254 45.77758301 -26.84106445 45.30883789 C-29.56877123 43.88735689 -32.28442601 42.44449618 -35 41 C-36.64503873 40.13910493 -38.29084459 39.27967375 -39.9375 38.421875 C-43.08054873 36.78122858 -46.2168596 35.12874755 -49.34765625 33.46484375 C-52.53361464 31.77181913 -55.72936856 30.09959437 -58.93359375 28.44140625 C-59.7222583 28.03092041 -60.51092285 27.62043457 -61.32348633 27.19750977 C-62.82495824 26.41627292 -64.32861372 25.63921431 -65.8347168 24.86694336 C-70.88732599 22.22534802 -70.88732599 22.22534802 -72 20 C-61.34497058 16.24879114 -50.65838021 13.03776828 -39.70874023 10.26025391 C-31.48366717 8.16254734 -23.3647579 5.78368335 -15.25 3.296875 C-14.52941406 3.07708984 -13.80882812 2.85730469 -13.06640625 2.63085938 C-11.10602971 2.03237013 -9.14673271 1.43034817 -7.1875 0.828125 C-4 0 -4 0 0 0 Z " fill="#FDFDFD" transform="translate(155,36)"/>
<path d="M0 0 C4.14925204 1.58907525 6.68408194 4.63532299 9.5625 7.875 C10.04396484 8.40480469 10.52542969 8.93460938 11.02148438 9.48046875 C18.52465028 17.7989718 18.52465028 17.7989718 18.28515625 23.421875 C17.05105812 34.57947451 14.22553392 45.60384511 10 56 C9.61086426 57.14782959 9.61086426 57.14782959 9.21386719 58.31884766 C7.51705291 62.37914083 6.16398548 64.48908077 2.05322266 66.29345703 C-1.61721781 67.27460289 -5.25433049 67.99059147 -9 68.625 C-10.27101562 68.87894531 -11.54203125 69.13289063 -12.8515625 69.39453125 C-22.99468045 71.32706214 -22.99468045 71.32706214 -28 70 C-27.38337586 64.62594937 -25.59380026 60.14809704 -23.5 55.21875 C-22.97194763 53.95393799 -22.97194763 53.95393799 -22.43322754 52.66357422 C-21.29468624 49.93988218 -20.14744575 47.21995113 -19 44.5 C-18.22004244 42.63894863 -17.44074631 40.77761991 -16.66210938 38.91601562 C-15.50710529 36.15483967 -14.35166218 33.39385873 -13.19372559 30.63391113 C-9.8760331 22.72404894 -6.62744797 14.78767522 -3.42578125 6.83007812 C-1.10574583 1.10574583 -1.10574583 1.10574583 0 0 Z " fill="#FDFDFD" transform="translate(197,102)"/>
<path d="M0 0 C0.10957031 1.09054688 0.21914062 2.18109375 0.33203125 3.3046875 C1.25523499 12.17637763 2.37094828 20.95349038 4.03442383 29.72021484 C4.94302346 34.73708713 5.66400663 39.91083499 5 45 C3 47 3 47 -0.90625 47.30859375 C-9.51094374 47.13396545 -18.02489196 45.44357631 -26.5 44.0625 C-29.94729419 43.50777403 -33.39527623 42.95749927 -36.84375 42.41015625 C-38.0646936 42.21566391 -38.0646936 42.21566391 -39.31030273 42.01724243 C-44.86266305 41.14498408 -50.39606943 40.45734557 -56 40 C-56 39.01 -56 38.02 -56 37 C-54.58911133 35.62817383 -54.58911133 35.62817383 -52.58203125 34.20703125 C-51.83236084 33.66699463 -51.08269043 33.12695801 -50.31030273 32.57055664 C-49.48602783 31.99039795 -48.66175293 31.41023926 -47.8125 30.8125 C-46.06901969 29.559088 -44.32688177 28.30380709 -42.5859375 27.046875 C-41.67166992 26.38880859 -40.75740234 25.73074219 -39.81542969 25.05273438 C-34.26084201 21.00287545 -28.82894605 16.79045331 -23.3840332 12.5949707 C-20.93345472 10.71526973 -18.46893995 8.85549618 -16 7 C-15.13133301 6.33081543 -14.26266602 5.66163086 -13.36767578 4.97216797 C-12.50513184 4.33037598 -11.64258789 3.68858398 -10.75390625 3.02734375 C-9.98506104 2.445896 -9.21621582 1.86444824 -8.42407227 1.26538086 C-5.45033214 -0.28693006 -3.30813796 -0.23157862 0 0 Z " fill="#FDFDFD" transform="translate(85,132)"/>
<path d="M0 0 C6.93 0 13.86 0 21 0 C21 25.08 21 50.16 21 76 C14.07 76 7.14 76 0 76 C0 50.92 0 25.84 0 0 Z " fill="#8093A2" transform="translate(360,96)"/>
<path d="M0 0 C0.58185059 0.37334473 1.16370117 0.74668945 1.76318359 1.13134766 C2.05112143 6.37817229 2.3358335 11.62515885 2.61767578 16.87231445 C2.71381404 18.65393697 2.81080349 20.43551378 2.90869141 22.21704102 C3.04997946 24.79122287 3.18811269 27.36555853 3.32568359 29.93994141 C3.36943115 30.72469345 3.41317871 31.5094455 3.45825195 32.31797791 C3.57787593 34.58880254 3.6777118 36.85898843 3.76318359 39.13134766 C3.81128174 40.37055466 3.81128174 40.37055466 3.86035156 41.63479614 C3.87855957 42.4419809 3.89676758 43.24916565 3.91552734 44.08081055 C3.93478271 44.80998184 3.95403809 45.53915314 3.97387695 46.29042053 C3.76318359 48.13134766 3.76318359 48.13134766 1.76318359 50.13134766 C-4.63064367 49.69766447 -11.01616797 46.93097939 -16.98681641 44.75634766 C-23.65472146 42.37170943 -30.3297807 40.13751568 -37.11572266 38.10791016 C-42.88740037 36.30200349 -48.55808001 34.20872649 -54.23681641 32.13134766 C-52.94101044 28.24392976 -51.57546795 27.8927339 -48.04931641 25.90869141 C-46.96569824 25.2923584 -45.88208008 24.67602539 -44.765625 24.04101562 C-43.58938818 23.38356777 -42.41311799 22.72617963 -41.23681641 22.06884766 C-40.04564338 21.39425331 -38.85505256 20.71862991 -37.66503906 20.04199219 C-35.29269721 18.69364874 -32.91836094 17.34893321 -30.54248047 16.00683594 C-26.2078283 13.5475451 -21.90417649 11.03854203 -17.61181641 8.50634766 C-16.96986328 8.12986084 -16.32791016 7.75337402 -15.66650391 7.36547852 C-15.05806641 7.00719971 -14.44962891 6.6489209 -13.82275391 6.27978516 C-13.23977539 5.93915039 -12.65679687 5.59851563 -12.05615234 5.24755859 C-10.72650419 4.43178413 -9.42567578 3.56850766 -8.14404297 2.67919922 C-7.44504883 2.20192383 -6.74605469 1.72464844 -6.02587891 1.23291016 C-5.39633301 0.78512207 -4.76678711 0.33733398 -4.11816406 -0.12402344 C-2.23681641 -0.86865234 -2.23681641 -0.86865234 0 0 Z " fill="#FDFDFD" transform="translate(143.23681640625,94.86865234375)"/>
<path d="M0 0 C9.86060394 2.47908223 19.43820965 5.74721493 29.0625 9 C32.21936085 10.06456381 35.37687817 11.12714806 38.53515625 12.1875 C39.28149323 12.43814209 40.0278302 12.68878418 40.79678345 12.94702148 C46.16599002 14.7416921 51.55646414 16.4429968 57 18 C57 18.99 57 19.98 57 21 C54.79125977 22.65063477 54.79125977 22.65063477 51.69140625 24.44140625 C50.55920654 25.10325928 49.42700684 25.7651123 48.26049805 26.44702148 C47.02805935 27.15257821 45.79538884 27.85773015 44.5625 28.5625 C43.32081754 29.28167971 42.07968863 30.00181598 40.83911133 30.72290039 C38.97903983 31.80322348 37.11826554 32.88219115 35.25462341 33.9563446 C31.68873075 36.01170269 28.14827995 38.10180394 24.6328125 40.2421875 C23.86767334 40.7055249 23.10253418 41.1688623 22.31420898 41.64624023 C20.94006653 42.48056918 19.56950109 43.32083118 18.20336914 44.16821289 C14.47438975 46.40638879 11.33593942 47.58167813 7 48 C3.97731451 40.21213975 2.75499021 32.2923568 1.58251953 24.06933594 C1.24849626 21.73951138 0.89655598 19.41286427 0.54296875 17.0859375 C0.32444808 15.59390672 0.10696322 14.10172379 -0.109375 12.609375 C-0.21449402 11.91970642 -0.31961304 11.23003784 -0.42791748 10.51947021 C-0.95042107 6.75914225 -1.00790391 3.67202952 0 0 Z " fill="#FDFDFE" transform="translate(87,129)"/>
<path d="M0 0 C14.23795739 -0.11924587 28.45674302 -0.00927587 42.6875 0.4375 C44.66278687 0.49635376 44.66278687 0.49635376 46.67797852 0.55639648 C48.54474243 0.61935913 48.54474243 0.61935913 50.44921875 0.68359375 C52.09410278 0.73858032 52.09410278 0.73858032 53.7722168 0.79467773 C57.22000155 1.0139945 60.58735188 1.46973072 64 2 C60.083623 6.12848253 55.86113933 9.52916762 51.3125 12.9375 C49.79763965 14.08392562 48.28333585 15.23108693 46.76953125 16.37890625 C45.98787598 16.97074707 45.2062207 17.56258789 44.40087891 18.17236328 C40.41059182 21.20991556 36.45501655 24.29174561 32.5 27.375 C31.78368408 27.9330835 31.06736816 28.49116699 30.3293457 29.06616211 C29.63284912 29.60893799 28.93635254 30.15171387 28.21875 30.7109375 C27.19201172 31.50709473 27.19201172 31.50709473 26.14453125 32.31933594 C24.60991864 33.52200821 23.08780607 34.74069854 21.57421875 35.96972656 C20.77628906 36.61135742 19.97835937 37.25298828 19.15625 37.9140625 C18.43244141 38.50396973 17.70863281 39.09387695 16.96289062 39.70166016 C15 41 15 41 12 41 C4.76266213 27.86833541 0.45455164 15.07159204 0 0 Z " fill="#FDFDFD" transform="translate(14,127)"/>
<path d="M0 0 C2.0996063 0.24547267 4.17389681 0.56950535 6.25927734 0.91455078 C7.62249639 1.09730703 8.98577723 1.279603 10.34912109 1.46142578 C19.20093974 2.78509212 28.15604601 5.06257994 36.25927734 8.91455078 C38.25927734 11.91455078 38.25927734 11.91455078 38.25927734 13.91455078 C36.70195001 17.02920545 34.42321384 17.52771518 31.25927734 18.91455078 C28.03928224 19.98546725 24.78142359 20.89252777 21.50927734 21.78955078 C20.57897705 22.05002197 19.64867676 22.31049316 18.69018555 22.57885742 C15.88159848 23.3637681 13.07084562 24.14039485 10.25927734 24.91455078 C8.03053409 25.5304792 5.80193231 26.14691298 3.57348633 26.76391602 C2.15282292 27.15679607 0.73175867 27.54822949 -0.68969727 27.93823242 C-5.14953836 29.16899268 -9.58895208 30.4574334 -14.02197266 31.78173828 C-15.64462036 32.26429077 -15.64462036 32.26429077 -17.30004883 32.7565918 C-19.42957042 33.39185246 -21.55742025 34.03275106 -23.68334961 34.67993164 C-24.65747803 34.97005127 -25.63160645 35.2601709 -26.63525391 35.55908203 C-27.49997314 35.82052002 -28.36469238 36.08195801 -29.25561523 36.35131836 C-31.8311973 36.93505623 -34.10900294 37.01677923 -36.74072266 36.91455078 C-33.56255501 31.0315596 -29.83755164 26.05467047 -25.57568359 20.92211914 C-22.88048947 17.6528889 -20.35175051 14.40388047 -18.07275391 10.82861328 C-13.26794336 3.49658536 -9.25693384 -0.66702758 0 0 Z " fill="#FDFDFD" transform="translate(118.74072265625,16.08544921875)"/>
<path d="M0 0 C3.73853382 1.46016809 5.0442086 3.21560848 6.99609375 6.671875 C7.5487793 7.63649658 8.10146484 8.60111816 8.67089844 9.5949707 C9.25387695 10.63613037 9.83685547 11.67729004 10.4375 12.75 C11.68028131 14.92618589 12.92378854 17.10195735 14.16796875 19.27734375 C14.80009277 20.38964355 15.4322168 21.50194336 16.08349609 22.64794922 C19.08659991 27.90051168 22.16603619 33.10713628 25.25 38.3125 C25.79841553 39.24223633 26.34683105 40.17197266 26.91186523 41.12988281 C27.42048096 41.9906543 27.92909668 42.85142578 28.453125 43.73828125 C28.89817383 44.49149658 29.34322266 45.24471191 29.80175781 46.02075195 C30.82336683 47.70823856 31.90577797 49.35866695 33 51 C32.625 53.6875 32.625 53.6875 32 56 C24.09729381 55.14662402 16.19736247 54.27139794 8.29980469 53.37158203 C5.59934812 53.06749096 2.89806996 52.77860568 0.1953125 52.49609375 C-1.02414063 52.35300781 -2.24359375 52.20992187 -3.5 52.0625 C-4.5209375 51.95035156 -5.541875 51.83820313 -6.59375 51.72265625 C-9 51 -9 51 -10.90625 49.30859375 C-13.51738846 43.79722651 -9.62575059 34.87505313 -8.25 29.125 C-7.85337158 27.46609741 -7.85337158 27.46609741 -7.44873047 25.77368164 C-5.32845458 17.05339673 -2.8638479 8.50284045 0 0 Z " fill="#FDFDFD" transform="translate(160,40)"/>
<path d="M0 0 C7.07736751 0.11440929 14.09878852 0.44283007 21.15272522 1.02828979 C22.71469887 1.15435104 22.71469887 1.15435104 24.30822754 1.28295898 C26.48389752 1.46033322 28.6593594 1.64027779 30.83460999 1.82272339 C34.17103681 2.10045174 37.50842434 2.36350757 40.84608459 2.62594604 C42.96920472 2.80084029 45.09225457 2.97659037 47.21522522 3.15328979 C48.21203812 3.23046234 49.20885101 3.30763489 50.23587036 3.387146 C51.15790756 3.46707794 52.07994476 3.54700989 53.02992249 3.62936401 C54.24471031 3.72929153 54.24471031 3.72929153 55.48403931 3.83123779 C57.58631897 4.22360229 57.58631897 4.22360229 60.58631897 6.22360229 C59.3220647 6.97241612 58.05772106 7.72107906 56.79335022 8.46969604 C55.94893372 8.96969116 55.10451721 9.46968628 54.23451233 9.98483276 C52.31856449 11.11741114 50.40137576 12.24789255 48.48304749 13.37643433 C43.24393134 16.45992203 38.01762211 19.56026434 32.81924438 22.71183777 C30.20420281 24.29448733 27.58219684 25.86537099 24.95921326 27.43481445 C23.67125516 28.20928712 22.38641235 28.98896482 21.1047821 29.77386475 C19.29262902 30.88269505 17.47035722 31.97277175 15.64491272 33.05953979 C14.59617981 33.69424194 13.5474469 34.32894409 12.4669342 34.98287964 C9.19063409 36.3940295 7.88802798 36.48954254 4.58631897 35.22360229 C1.39790364 32.96402377 0.85472648 30.34529022 -0.01914978 26.63766479 C-0.28018494 25.54196167 -0.54122009 24.44625854 -0.81016541 23.31735229 C-1.07120056 22.17266479 -1.33223572 21.02797729 -1.60118103 19.84860229 C-1.87381775 18.71164917 -2.14645447 17.57469604 -2.42735291 16.40328979 C-4.78021131 6.35499227 -4.78021131 6.35499227 -4.41368103 2.22360229 C-2.41368103 0.22360229 -2.41368103 0.22360229 0 0 Z " fill="#FDFDFD" transform="translate(79.41368103027344,86.77639770507813)"/>
<path d="M0 0 C9.21643254 5.10692062 18.51485546 10.02365447 27.91186523 14.79052734 C28.83427002 15.26441895 29.7566748 15.73831055 30.70703125 16.2265625 C31.52534424 16.64244629 32.34365723 17.05833008 33.18676758 17.48681641 C35.0625 18.625 35.0625 18.625 36.0625 20.625 C34.00097611 21.27394237 31.93823742 21.9190264 29.875 22.5625 C28.72644531 22.92214844 27.57789063 23.28179687 26.39453125 23.65234375 C19.04775276 25.79694849 11.95650061 25.87922257 4.35522461 25.92016602 C2.88442293 25.93159753 1.41365977 25.95190669 -0.05688477 25.98168945 C-10.83820776 26.19943252 -21.0612779 25.56311105 -30.9375 20.625 C-29.0606774 14.55292687 -26.86876934 8.60785836 -24.5625 2.6875 C-24.14278931 1.55066772 -24.14278931 1.55066772 -23.71459961 0.39086914 C-22.38429633 -2.95125912 -21.59111587 -4.92224615 -18.5859375 -7.00390625 C-11.86999925 -7.94493005 -5.65287978 -3.16360722 0 0 Z " fill="#FCFDFD" transform="translate(111.9375,192.375)"/>
<path d="M0 0 C9.01498636 1.49790474 18.04150865 2.63639979 27.125 3.625 C27.62 5.11 27.62 5.11 28.125 6.625 C-4.91088867 39.66088867 -4.91088867 39.66088867 -7.00350952 41.74179077 C-8.1560054 42.90150326 -9.2955865 44.07443301 -10.41275024 45.26821899 C-11.51440593 46.43880028 -12.68779662 47.54127775 -13.875 48.625 C-14.865 48.625 -15.855 48.625 -16.875 48.625 C-17.16558463 44.18199187 -17.45009646 39.73864433 -17.72949219 35.29492188 C-17.82491458 33.78993787 -17.92186651 32.28504989 -18.02050781 30.78027344 C-18.52288375 23.10109833 -18.95863169 15.42109676 -19.125 7.7265625 C-19.15078125 6.61877441 -19.1765625 5.51098633 -19.203125 4.36962891 C-18.875 1.625 -18.875 1.625 -17.55517578 -0.23925781 C-12.90826996 -3.38040949 -5.25286576 -0.90955662 0 0 Z " fill="#FDFDFD" transform="translate(165.875,94.375)"/>
<path d="M0 0 C4.49695671 3.37271753 7.20982626 8.08023189 8.21630859 13.63696289 C8.38281832 16.31686944 8.38440332 18.94125704 8.3125 21.625 C8.32345703 22.51896484 8.33441406 23.41292969 8.34570312 24.33398438 C8.26415133 31.76607174 6.5677966 37.10404799 1.40234375 42.52734375 C-3.52628228 45.37999475 -8.74909967 44.83746961 -14.25 44.0625 C-17.75379017 42.69001722 -19.43965163 40.53359397 -21.265625 37.21875 C-24.88228004 28.40726319 -24.80170842 15.9326641 -21.25 7.0625 C-16.15249596 -1.27723275 -8.96150392 -2.58504921 0 0 Z " fill="#FDFDFD" transform="translate(858.25,111.9375)"/>
<path d="M0 0 C0.89074219 0.00451172 1.78148437 0.00902344 2.69921875 0.01367188 C4.84117671 0.02518778 6.98309887 0.04310653 9.125 0.0625 C10.94634936 2.71553799 11.16147407 3.83921637 10.63354492 7.07104492 C10.12464722 8.78964722 10.12464722 8.78964722 9.60546875 10.54296875 C9.06116211 12.41178711 9.06116211 12.41178711 8.50585938 14.31835938 C8.10809199 15.62891204 7.7103053 16.93945884 7.3125 18.25 C6.92517293 19.57189727 6.53909075 20.89415999 6.15429688 22.21679688 C3.2982327 31.8892673 3.2982327 31.8892673 2.125 33.0625 C-3.78180059 32.71459625 -7.94222316 30.78135285 -13.0625 27.9375 C-13.85261475 27.51025635 -14.64272949 27.0830127 -15.45678711 26.64282227 C-17.2419516 25.67724355 -19.02476705 24.70731384 -20.80566406 23.73388672 C-24.28619025 21.83858905 -27.77834307 19.96590809 -31.2734375 18.09765625 C-31.90665421 17.75915649 -32.53987091 17.42065674 -33.192276 17.07189941 C-34.47132142 16.38818074 -35.75037922 15.70448523 -37.02944946 15.02081299 C-41.1487097 12.81699592 -45.26359697 10.60501636 -49.37915039 8.39428711 C-50.86856516 7.59953434 -52.36503621 6.8174819 -53.875 6.0625 C-53.875 5.4025 -53.875 4.7425 -53.875 4.0625 C-50.00161985 3.6505125 -46.12791141 3.24176264 -42.25390625 2.83569336 C-40.30712158 2.63100584 -38.36058771 2.42393729 -36.4140625 2.21679688 C-24.27676567 0.94733471 -12.21106963 -0.12229885 0 0 Z " fill="#FCFDFD" transform="translate(151.875,177.9375)"/>
<path d="M0 0 C5.79586939 0.68122067 11.59009796 1.37445935 17.3828125 2.08203125 C22.03254988 2.64899765 26.68386498 3.19188278 31.33943176 3.70803833 C34.17780919 4.02603124 37.01426633 4.3593757 39.85055542 4.69543457 C41.2410233 4.85671543 42.6322686 5.01143036 44.02420044 5.1595459 C45.98548087 5.36925084 47.94403291 5.60401381 49.90234375 5.83984375 C51.59605103 6.03114868 51.59605103 6.03114868 53.32397461 6.22631836 C56 7 56 7 57.44360352 8.76000977 C58.56589959 13.27824867 56.65882586 17.14564475 54.93359375 21.30078125 C54.53076172 22.27724609 54.12792969 23.25371094 53.71289062 24.25976562 C53.29201172 25.26716797 52.87113281 26.27457031 52.4375 27.3125 C52.01275391 28.33923828 51.58800781 29.36597656 51.15039062 30.42382812 C50.10429072 32.95092341 49.05404084 35.47620894 48 38 C43.45497752 37.20428102 39.78209633 35.56178757 35.75 33.375 C35.08395752 33.015271 34.41791504 32.65554199 33.73168945 32.28491211 C28.38091589 29.33090017 23.61603318 26.01654835 19 22 C18.19175781 21.32324219 17.38351563 20.64648438 16.55078125 19.94921875 C10.32462365 14.58118394 4.75846839 8.72392273 0 2 C0 1.34 0 0.68 0 0 Z " fill="#FDFDFD" transform="translate(31,174)"/>
<path d="M0 0 C3.50536595 2.82376702 5.82096705 5.52540116 7.25 9.8125 C7.53232471 13.34915248 7.52763754 16.8908254 7.5625 20.4375 C7.59150391 21.39785156 7.62050781 22.35820312 7.65039062 23.34765625 C7.70869201 29.95813692 6.68649689 35.1025919 3.25 40.8125 C0.09148311 43.97101689 -2.94682052 44.05361329 -7.25 44.25 C-10.75104458 44.13235737 -12.57850133 43.89824934 -15.75 42.3125 C-21.0843744 35.644532 -21.24566317 28.44043135 -21.1875 20.25 C-21.20748047 19.24775391 -21.22746094 18.24550781 -21.24804688 17.21289062 C-21.24386735 10.86419135 -20.54672046 6.95778237 -16.75 1.8125 C-11.5291161 -1.86585002 -5.93092097 -2.56107951 0 0 Z " fill="#FDFDFD" transform="translate(729.75,112.1875)"/>
<path d="M0 0 C-4.69825258 7.49341551 -10.09141655 14.37044755 -15.6171875 21.25878906 C-16.93264503 22.91518792 -18.21961665 24.58985651 -19.5 26.2734375 C-20.263125 27.25570312 -21.02625 28.23796875 -21.8125 29.25 C-22.47894531 30.12140625 -23.14539063 30.9928125 -23.83203125 31.890625 C-26.50524311 34.49158789 -28.34912854 35.26353885 -32 36 C-38.44372906 35.62190354 -44.72200915 33.60036565 -50.9375 31.9375 C-52.00291016 31.65583984 -53.06832031 31.37417969 -54.16601562 31.08398438 C-56.77829945 30.39284202 -59.38956619 29.69809111 -62 29 C-62 28.34 -62 27.68 -62 27 C-46.41311961 12.01126175 -21.91441293 -0.18571536 0 0 Z " fill="#FCFDFD" transform="translate(106,17)"/>
<path d="M0 0 C0.66 0 1.32 0 2 0 C2.32049316 0.57105469 2.64098633 1.14210937 2.97119141 1.73046875 C6.32359462 7.69767533 9.69314377 13.65495007 13.07421875 19.60595703 C14.36660811 21.88369497 15.65562964 24.16334687 16.94140625 26.44482422 C18.82482088 29.78217787 20.72314254 33.11062979 22.625 36.4375 C23.21619629 37.49130859 23.80739258 38.54511719 24.41650391 39.63085938 C24.97257324 40.59701172 25.52864258 41.56316406 26.1015625 42.55859375 C26.58963379 43.41767334 27.07770508 44.27675293 27.58056641 45.16186523 C28.28318604 46.07174194 28.28318604 46.07174194 29 47 C29.99 47 30.98 47 32 47 C33.98 40.07 33.98 40.07 36 33 C36.66 33 37.32 33 38 33 C38.66 32.34 39.32 31.68 40 31 C46.12125084 43.5686339 49.92055898 57.96147557 49 72 C43.6431479 70.69994525 41.26799915 68.55127506 37.75 64.375 C36.20322411 62.55167933 34.62810031 60.75108631 33 59 C32.34 59 31.68 59 31 59 C28.40274201 65.2759405 25.80687734 71.55245605 23.21191406 77.8293457 C22.33168984 79.95805449 21.45116384 82.08663853 20.5703125 84.21508789 C15.64514941 96.11663256 10.73906023 108.0229062 6 120 C5.01 120 4.02 120 3 120 C4.88363885 114.11487352 6.98646293 108.39091852 9.3984375 102.703125 C9.8736937 101.569888 9.8736937 101.569888 10.35855103 100.41375732 C11.36093992 98.02452354 12.3675987 95.63712416 13.375 93.25 C14.37478666 90.87696551 15.37352816 88.50350705 16.37002563 86.12908936 C16.98583096 84.66213761 17.60345775 83.19594823 18.22348022 81.73077393 C20.96703896 75.20186378 23.4530829 68.62198446 26 62 C18.08 69.92 10.16 77.84 2 86 C0.515 85.505 0.515 85.505 -1 85 C-0.15179688 84.16750732 0.69640625 83.33501465 1.5703125 82.47729492 C4.70872166 79.39309639 7.83726501 76.299053 10.96289062 73.2019043 C12.31828088 71.86162086 13.67634866 70.52403958 15.03710938 69.18920898 C16.99014499 67.2724725 18.93341388 65.34629362 20.875 63.41796875 C21.48746582 62.82098679 22.09993164 62.22400482 22.73095703 61.6089325 C24.21200289 60.1284853 25.61393318 58.56972594 27 57 C27 56.01 27 55.02 27 54 C25.59427734 53.96132812 25.59427734 53.96132812 24.16015625 53.921875 C10.93002328 53.41347251 -1.97032169 51.26036252 -15 49 C-11.61376999 46.74251333 -11.05004208 46.81998843 -7.19921875 47.27734375 C-6.22130371 47.38675293 -5.24338867 47.49616211 -4.23583984 47.60888672 C-3.1680127 47.7379541 -2.10018555 47.86702148 -1 48 C1.32671895 48.25226288 3.65354592 48.50353102 5.98046875 48.75390625 C8.38293961 49.02230218 10.7852825 49.29184585 13.1875 49.5625 C15.0447168 49.77036133 15.0447168 49.77036133 16.93945312 49.98242188 C19.9597505 50.32060189 22.97992804 50.65981387 26 51 C25.20818867 46.42579305 23.50318677 42.91900496 21.1875 38.9375 C20.79731689 38.25502197 20.40713379 37.57254395 20.00512695 36.86938477 C15.67831615 29.34775314 11.19011058 21.92048557 6.69921875 14.49609375 C5.79921088 12.99755693 4.89945525 11.49886858 4 10 C3.58959473 9.32727051 3.17918945 8.65454102 2.75634766 7.96142578 C0 3.34088164 0 3.34088164 0 0 Z " fill="#8A9CAA" transform="translate(166,44)"/>
<path d="M0 0 C3.1699105 1.63146302 6.27344677 3.36766107 9.375 5.125 C16.25213635 8.96782845 23.16697304 12.65719136 30.23583984 16.13330078 C37.24616885 19.58914729 44.12412654 23.28544767 51 27 C51 27.33 51 27.66 51 28 C39.8543652 28.12350562 28.85759555 27.43511791 17.75170898 26.56567383 C15.52687336 26.39571769 13.30123198 26.2360228 11.07495117 26.08618164 C7.83818574 25.8679328 4.60507517 25.61915951 1.37109375 25.36328125 C0.37428085 25.30159256 -0.62253204 25.23990387 -1.64955139 25.17634583 C-8.45424279 24.58811541 -8.45424279 24.58811541 -11.1484375 21.68481445 C-12.46702127 17.52757083 -11.98216133 14.14322654 -11.4375 9.875 C-11.36208984 9.06417969 -11.28667969 8.25335938 -11.20898438 7.41796875 C-10.79940491 3.90313787 -10.50120841 1.63707128 -8.28515625 -1.1796875 C-4.83553663 -2.41801249 -3.33322876 -1.50658818 0 0 Z " fill="#FCFCFC" transform="translate(87,61)"/>
<path d="M0 0 C1.18795166 0.86866699 1.18795166 0.86866699 2.39990234 1.75488281 C4.75007214 3.47665732 7.09424901 5.20632627 9.4375 6.9375 C10.72004967 7.87890954 12.00260153 8.82031609 13.28515625 9.76171875 C19.24493358 14.16625026 19.24493358 14.16625026 21.4375 15.9375 C21.4375 16.2675 21.4375 16.5975 21.4375 16.9375 C0.41357765 17.09468368 -20.5525671 16.66231281 -41.5625 15.9375 C-41.5625 12.9375 -41.5625 12.9375 -39.875 10.921875 C-39.111875 10.18453125 -38.34875 9.4471875 -37.5625 8.6875 C-36.74265625 7.89472656 -35.9228125 7.10195312 -35.078125 6.28515625 C-31.64368803 3.08003728 -28.14491654 -0.02454765 -24.5625 -3.0625 C-23.263125 -4.238125 -23.263125 -4.238125 -21.9375 -5.4375 C-13.51015691 -11.20357685 -6.89650601 -5.09106983 0 0 Z " fill="#FCFCFC" transform="translate(55.5625,109.0625)"/>
<path d="M0 0 C5.92202774 -0.29610139 9.01871133 0.59065263 13.51904297 4.59716797 C15.59652227 6.56949172 17.62772271 8.5816621 19.63232422 10.62792969 C20.77726852 11.77655285 21.978543 12.86865315 23.19140625 13.9453125 C29.81335766 19.91175761 38.36733779 29.72399087 39.29296875 38.90625 C38.79600364 41.45976179 38.00983984 43.60615654 37 46 C36.53615339 47.85279513 36.07776106 49.7069648 35.625 51.5625 C34.9765625 54.06640625 34.9765625 54.06640625 34 56 C31.8984375 56.77734375 31.8984375 56.77734375 30 57 C22.39827652 44.51586876 15.0913752 31.86232373 7.84277344 19.17041016 C6.57319333 16.98615376 5.27231487 14.81989057 3.94628906 12.66943359 C3.2962793 11.6067627 2.64626953 10.5440918 1.9765625 9.44921875 C1.08445068 8.02162231 1.08445068 8.02162231 0.17431641 6.56518555 C-1 4 -1 4 -0.68603516 1.65942383 C-0.45964355 1.11181396 -0.23325195 0.5642041 0 0 Z " fill="#FCFCFD" transform="translate(165,35)"/>
<path d="M0 0 C0.495 0.99 0.495 0.99 1 2 C0.14582221 4.4344067 -0.77650618 6.75638441 -1.796875 9.12109375 C-2.25431343 10.20714653 -2.25431343 10.20714653 -2.72099304 11.31513977 C-3.72375559 13.69224629 -4.73696564 16.06475514 -5.75 18.4375 C-6.78574176 20.88684989 -7.81869588 23.33736345 -8.85154724 25.78793335 C-9.54919053 27.44262774 -10.24773385 29.09694293 -10.94715881 30.75088501 C-14.17594764 38.39099696 -17.32029486 46.06380562 -20.4375 53.75 C-20.90317383 54.89654053 -21.36884766 56.04308105 -21.84863281 57.22436523 C-22.90042509 59.81570534 -23.95099845 62.40752923 -25 65 C-29 65 -29 65 -30.37207031 63.68994141 C-31.68942113 61.68191476 -32.987999 59.66841442 -34.25 57.625 C-34.70890625 56.94566406 -35.1678125 56.26632813 -35.640625 55.56640625 C-39.02069532 50.18444904 -40.41272718 45.30675054 -39 39 C-36.65038051 35.30972636 -33.64565156 32.47688029 -30.46875 29.4921875 C-29.17028137 28.21494308 -29.17028137 28.21494308 -27.84558105 26.91189575 C-25.086368 24.20847995 -22.29440733 21.54197351 -19.5 18.875 C-17.61882104 17.04399876 -15.73988653 15.21068854 -13.86328125 13.375 C-9.26785563 8.88958834 -4.6450663 4.43395303 0 0 Z " fill="#FCFDFD" transform="translate(192,105)"/>
<path d="M0 0 C4.0436399 1.73198911 5.88379162 5.50209979 8.03808594 9.15869141 C8.53501953 9.93148437 9.03195313 10.70427734 9.54394531 11.50048828 C13.06726467 17.19954309 13.06726467 17.19954309 12.66479492 20.03833008 C11.97558594 21.84619141 11.97558594 21.84619141 10.97558594 22.84619141 C8.31227429 23.13714302 5.66594281 23.36999588 2.99511719 23.56494141 C1.78670418 23.65914368 1.78670418 23.65914368 0.55387878 23.75524902 C-2.03440794 23.95653849 -4.62310106 24.15179644 -7.21191406 24.34619141 C-9.78281526 24.54123027 -12.35359056 24.73762085 -14.92414856 24.93713379 C-16.52557042 25.0612363 -18.12719957 25.18270076 -19.72904968 25.30114746 C-23.88075393 25.62084749 -27.91555392 26.15176206 -32.02441406 26.84619141 C-33.45784213 26.91878388 -34.893879 26.95488783 -36.32910156 26.94384766 C-37.45058594 26.93901367 -37.45058594 26.93901367 -38.59472656 26.93408203 C-39.73554687 26.92151367 -39.73554687 26.92151367 -40.89941406 26.90869141 C-41.68316406 26.90417969 -42.46691406 26.89966797 -43.27441406 26.89501953 C-45.1911142 26.88333234 -47.10777455 26.86540049 -49.02441406 26.84619141 C-46.09388026 23.66786628 -43.16118037 21.57763763 -39.40332031 19.45556641 C-38.30874512 18.83166016 -37.21416992 18.20775391 -36.08642578 17.56494141 C-34.92015358 16.90827972 -33.7536456 16.25203662 -32.58691406 15.59619141 C-24.4387179 10.99101726 -16.39793578 6.36421255 -8.73535156 0.97119141 C-5.68945446 -0.292812 -3.26704867 -0.57022885 0 0 Z " fill="#FCFDFD" transform="translate(149.0244140625,152.15380859375)"/>
<path d="M0 0 C-1.53700724 4.95991292 -4.45086953 8.29272167 -7.8125 12.125 C-8.39 12.78443604 -8.9675 13.44387207 -9.5625 14.12329102 C-18.62217693 24.25278609 -28.95493811 32.6403531 -41 39 C-41.66 39 -42.32 39 -43 39 C-42.19994335 33.31388306 -40.75540643 27.84372817 -39.25 22.3125 C-39.01023438 21.36310547 -38.77046875 20.41371094 -38.5234375 19.43554688 C-36.6034558 12.44344858 -36.6034558 12.44344858 -33.421875 10.10546875 C-32.22304687 9.55826172 -32.22304687 9.55826172 -31 9 C-30.73396973 8.34781494 -30.46793945 7.69562988 -30.19384766 7.02368164 C-29 5 -29 5 -26.54150391 4.08691406 C-25.53007324 3.89838867 -24.51864258 3.70986328 -23.4765625 3.515625 C-22.373125 3.30292969 -21.2696875 3.09023437 -20.1328125 2.87109375 C-18.97523438 2.66613281 -17.81765625 2.46117187 -16.625 2.25 C-15.47515625 2.02957031 -14.3253125 1.80914062 -13.140625 1.58203125 C-8.67465786 0.74401178 -4.5546184 0 0 0 Z " fill="#FCFCFC" transform="translate(200,170)"/>
<path d="M0 0 C6.54275018 6.46895976 12.80103702 13.20238328 19 20 C19.50837402 20.556875 20.01674805 21.11375 20.54052734 21.6875 C21.85870032 23.14959827 23.14921739 24.63649764 24.4375 26.125 C25.15808594 26.95257813 25.87867187 27.78015625 26.62109375 28.6328125 C28 31 28 31 28.26953125 33.5703125 C26.16827824 37.59178749 22.37722728 38.31639925 18.25 39.75 C17.43789063 40.05292969 16.62578125 40.35585937 15.7890625 40.66796875 C7.46728348 43.71748061 7.46728348 43.71748061 4 44 C3.01 43.34 2.02 42.68 1 42 C0.56762695 39.64013672 0.56762695 39.64013672 0.48828125 36.6796875 C0.45275146 35.59349121 0.41722168 34.50729492 0.38061523 33.38818359 C0.35813721 32.22883301 0.33565918 31.06948242 0.3125 29.875 C0.27906494 28.70404785 0.24562988 27.5330957 0.21118164 26.32666016 C-0.02146289 17.55142949 -0.11933387 8.77766894 0 0 Z " fill="#FCFCFD" transform="translate(40,50)"/>
<path d="M0 0 C4.38506521 3.51354208 4.72920198 8.80922102 5.80859375 14.125 C6.05931641 15.24132812 6.31003906 16.35765625 6.56835938 17.5078125 C7.84655961 23.31968276 8.88109753 29.0815658 9.49609375 35 C8.50609375 35.495 8.50609375 35.495 7.49609375 36 C0.37851873 30.87283954 0.37851873 30.87283954 -3.01123047 28.41430664 C-6.99995532 25.52156162 -10.99703317 22.64602749 -15.0390625 19.828125 C-15.73056396 19.33932861 -16.42206543 18.85053223 -17.13452148 18.34692383 C-18.44306833 17.42217895 -19.75883461 16.5075489 -21.08227539 15.60424805 C-22.85546875 14.33984375 -22.85546875 14.33984375 -25.50390625 12 C-25.50390625 10.68 -25.50390625 9.36 -25.50390625 8 C-21.97359502 6.59450436 -18.42840109 5.23123826 -14.87890625 3.875 C-13.87988281 3.47667969 -12.88085938 3.07835938 -11.8515625 2.66796875 C-7.76162336 1.12408444 -4.39310622 0 0 0 Z " fill="#FCFCFD" transform="translate(70.50390625,88)"/>
<path d="M0 0 C-3.46586355 2.89662196 -6.97027917 5.2642398 -10.89453125 7.49609375 C-12.01537109 8.13740234 -13.13621094 8.77871094 -14.29101562 9.43945312 C-15.46470008 10.1057219 -16.63852914 10.77173601 -17.8125 11.4375 C-24.95594555 15.50395296 -32.07034033 19.57626892 -39 24 C-36.69 24.33 -34.38 24.66 -32 25 C-32.495 26.485 -32.495 26.485 -33 28 C-35.97 28 -38.94 28 -42 28 C-42 28.66 -42 29.32 -42 30 C-41.16968262 30.24766113 -40.33936523 30.49532227 -39.48388672 30.75048828 C-35.51689317 32.17326845 -31.95947871 33.99582163 -28.2578125 35.9921875 C-27.53061005 36.37939972 -26.80340759 36.76661194 -26.0541687 37.16555786 C-23.74209386 38.39769136 -21.43344232 39.63607643 -19.125 40.875 C-16.82304305 42.10551469 -14.52038469 43.33470128 -12.21725464 44.5630188 C-10.78944271 45.32503519 -9.36240502 46.08850487 -7.93630981 46.85372925 C-3.33013356 49.31888901 1.31866394 51.6805603 6 54 C5.01 54.66 4.02 55.32 3 56 C-1.64119417 53.54730828 -6.28187719 51.09365291 -10.92211914 48.63916016 C-12.49587727 47.8068734 -14.0697671 46.97483561 -15.64379883 46.14306641 C-17.17286183 45.33502103 -18.70172819 44.52660341 -20.23039246 43.71780396 C-21.73093087 42.92405682 -23.23199632 42.13130519 -24.7335968 41.33956909 C-29.81772375 38.6518046 -34.8376006 35.86701115 -39.80664062 32.97070312 C-43.25568155 31.44427985 -45.46191319 31.89926188 -49 33 C-49.391875 34.216875 -49.78375 35.43375 -50.1875 36.6875 C-52.24277915 42.87309974 -54.62676756 48.93090361 -57 55 C-57.99 55 -58.98 55 -60 55 C-58.0251454 48.76361705 -55.68199612 42.91181937 -52.890625 36.9921875 C-51.80066178 33.33029351 -52.37436365 30.73017804 -53 27 C-54.51339966 26.93631226 -54.51339966 26.93631226 -56.05737305 26.87133789 C-67.08806482 26.34796181 -77.89432757 25.05446525 -88.8125 23.4375 C-91.22465424 23.08517914 -93.63707836 22.73492817 -96.04997253 22.38771057 C-97.53182612 22.17399874 -99.01323445 21.95716782 -100.49409485 21.73667908 C-103.72144756 21.26692943 -106.72691248 21 -110 21 C-110 20.34 -110 19.68 -110 19 C-103.60979251 18.0644511 -98.27960684 18.09965539 -91.94140625 19.21484375 C-91.11221176 19.34943497 -90.28301727 19.48402618 -89.42869568 19.62269592 C-86.80462241 20.04969982 -84.18351802 20.49215674 -81.5625 20.9375 C-65.2236586 24.50810908 -65.2236586 24.50810908 -49 23 C-49 21.35 -49 19.7 -49 18 C-48.34 18.33 -47.68 18.66 -47 19 C-46.505 20.485 -46.505 20.485 -46 22 C-41.31188508 21.46361835 -38.1125378 20.20779348 -34.0625 17.8125 C-33.48910889 17.47806885 -32.91571777 17.1436377 -32.32495117 16.79907227 C-28.20092865 14.37333227 -24.13971853 11.84881565 -20.078125 9.3203125 C-19.04550537 8.6811792 -18.01288574 8.0420459 -16.94897461 7.38354492 C-14.87072537 6.09408243 -12.79849928 4.79485745 -10.73266602 3.4855957 C-9.77545654 2.89093506 -8.81824707 2.29627441 -7.83203125 1.68359375 C-6.97327393 1.14275146 -6.1145166 0.60190918 -5.22973633 0.04467773 C-3 -1 -3 -1 0 0 Z " fill="#889AA8" transform="translate(140,154)"/>
<path d="M0 0 C0.66 0 1.32 0 2 0 C5.2155881 3.48872685 8.07718797 7.26500834 11 11 C11.76763672 11.90105469 11.76763672 11.90105469 12.55078125 12.8203125 C13.6875 14.25 13.6875 14.25 15 17 C13.98047139 22.67737499 12.02156724 25.57288896 7.875 29.5 C7.38652588 29.96776855 6.89805176 30.43553711 6.39477539 30.91748047 C-4.45062534 41.22531267 -4.45062534 41.22531267 -8 43 C-8.88711702 28.08329162 -5.58777184 13.73752604 0 0 Z " fill="#FBFCFC" transform="translate(21,77)"/>
<path d="M0 0 C6.8990339 1.01813936 13.68193649 2.53692859 20.4375 4.25 C21.21851074 4.43006592 21.99952148 4.61013184 22.80419922 4.7956543 C26.86638632 5.86773032 28.6609732 6.62301468 31.546875 9.83203125 C33.09935312 13.21660049 33.34515617 14.80383563 32.8125 18.4375 C32.62300781 19.85289063 32.62300781 19.85289063 32.4296875 21.296875 C32.28789063 22.18890625 32.14609375 23.0809375 32 24 C31.81228831 25.39580488 31.62475043 26.79163316 31.4375 28.1875 C31.293125 29.115625 31.14875 30.04375 31 31 C29.68 31.33 28.36 31.66 27 32 C21.17208164 25.70974156 15.56682802 19.33491498 10.18359375 12.65625 C7.37054567 9.23429527 4.41957576 5.95088027 1.43359375 2.6796875 C0 1 0 1 0 0 Z " fill="#FCFCFD" transform="translate(42,48)"/>
<path d="M0 0 C1.03930664 0.01353516 1.03930664 0.01353516 2.09960938 0.02734375 C3.79572395 0.05073843 5.49165871 0.08660359 7.1875 0.125 C7.77428536 6.4883612 7.5458243 11.20589488 3.73046875 16.49609375 C0.04987729 20.38168018 -4.29370791 21.28053133 -9.4375 21.5625 C-12.47008452 21.42253456 -14.03343319 21.02580551 -16.875 19.75 C-19.43421155 16.28268112 -19.57970814 13.77931836 -19.3671875 9.53515625 C-18.75451479 6.87305019 -18.16502848 5.89549103 -16.125 4.125 C-10.57980824 0.77695969 -6.45683089 -0.16064842 0 0 Z " fill="#FBFCFC" transform="translate(437.8125,136.875)"/>
<path d="M0 0 C3.7910119 1.44950455 7.3874638 3.15172566 11 5 C11 5.66 11 6.32 11 7 C9.68 7.66 8.36 8.32 7 9 C7.52268466 11.76276177 8.10869587 14.3260876 9 17 C6 17 6 17 3.8125 15 C3.214375 14.34 2.61625 13.68 2 13 C-1.45510021 26.63748378 -4.73296651 40.31643287 -8 54 C-8.66 53.34 -9.32 52.68 -10 52 C-9.62334718 45.29711722 -7.80898407 38.95822167 -6.0625 32.5 C-5.27836791 29.55807376 -4.49499294 26.61602231 -3.71923828 23.671875 C-3.26611541 21.98858353 -2.79319873 20.31037699 -2.29248047 18.640625 C-1.05833686 14.68371866 -1.05833686 14.68371866 -1.95727539 10.77929688 C-2.47342407 9.89854492 -2.47342407 9.89854492 -3 9 C-3.66306152 9.1858667 -4.32612305 9.3717334 -5.00927734 9.56323242 C-6.99687824 10.12030315 -8.98451135 10.67725898 -10.97216797 11.23413086 C-13.26552205 11.87665831 -15.55881506 12.51940377 -17.85205078 13.16235352 C-27.79598856 15.94835258 -27.79598856 15.94835258 -32.71875 17.296875 C-46.20553703 20.99466367 -59.60091405 24.99757876 -73 29 C-73.33 28.34 -73.66 27.68 -74 27 C-74.66 26.67 -75.32 26.34 -76 26 C-52.49796286 19.30627164 -52.49796286 19.30627164 -40.625 16.4375 C-31.68332311 14.26454533 -22.92474609 11.6207359 -14.19360352 8.71899414 C-12.64257844 8.21061697 -11.08497402 7.7221099 -9.52319336 7.24780273 C-8.7163208 6.99716064 -7.90944824 6.74651855 -7.078125 6.48828125 C-6.34625977 6.26696533 -5.61439453 6.04564941 -4.86035156 5.81762695 C-2.07638414 4.59406962 -1.11250645 2.74418257 0 0 Z " fill="#91A2AF" transform="translate(158,27)"/>
<path d="M0 0 C2.13588937 2.93187298 1.79222797 5.76084172 1.6484375 9.2734375 C1.2578125 11.7265625 1.2578125 11.7265625 -0.4921875 14.8515625 C-5.47462962 17.72604834 -10.13469676 17.66372601 -15.7421875 16.7265625 C-18.9921875 14.7890625 -18.9921875 14.7890625 -20.7421875 11.7265625 C-21.41680891 8.56498929 -21.45709082 5.88357554 -20.7421875 2.7265625 C-18.5461296 -0.28517405 -16.92013363 -1.78262661 -13.4921875 -3.2109375 C-8.85733431 -3.31627507 -3.82043268 -2.79251357 0 0 Z " fill="#8094A2" transform="translate(506.7421875,69.2734375)"/>
<path d="M0 0 C3.36637548 2.29525601 4.92706799 4.22913599 6.75 7.875 C6.75 10.185 6.75 12.495 6.75 14.875 C-2.49 14.875 -11.73 14.875 -21.25 14.875 C-20.25157054 7.88599379 -19.36690947 4.47242456 -14 0 C-9.03820261 -2.02982621 -4.92701381 -1.70550478 0 0 Z " fill="#FBFCFC" transform="translate(1006.25,110.125)"/>
<path d="M0 0 C2.38970459 4.082412 2.31696314 7.9652256 1.5 12.5625 C-0.3125 15.6875 -0.3125 15.6875 -3.5 17.5625 C-8.74111284 18.43470918 -12.98081498 18.44362731 -17.625 15.75 C-20.06715332 12.90082113 -20.46221882 10.9025306 -20.875 7.1875 C-20.5 3.5625 -20.5 3.5625 -18.3125 0.6875 C-12.8263942 -3.45755772 -5.94145962 -3.41633928 0 0 Z " fill="#8094A2" transform="translate(379.5,68.4375)"/>
<path d="M0 0 C0.33 0 0.66 0 1 0 C1.70653534 13.34524989 2.14849149 26.63576581 2 40 C-2.57001397 37.96627904 -5.10529846 34.86102836 -8.3125 31.125 C-8.87517578 30.49980469 -9.43785156 29.87460938 -10.01757812 29.23046875 C-10.80745117 28.31587891 -10.80745117 28.31587891 -11.61328125 27.3828125 C-12.09579346 26.82996582 -12.57830566 26.27711914 -13.07543945 25.70751953 C-14 24 -14 24 -13.73779297 21.95947266 C-10.79098468 14.13317109 -5.50852014 6.28488875 0 0 Z " fill="#FAFBFB" transform="translate(37,52)"/>
<path d="M0 0 C8.32796836 9.88946243 10.78214762 28.42770117 10 41 C6.0536445 38.04023337 2.77906324 34.81044627 -0.4375 31.0625 C-1.13746094 30.24910156 -1.83742187 29.43570313 -2.55859375 28.59765625 C-4.39668259 25.28511132 -3.86524613 23.59921912 -3 20 C-3.33 19.67 -3.66 19.34 -4 19 C-4.33485031 14.29814357 -3.45518437 10.58150213 -2 6.125 C-1.62875 4.97257812 -1.2575 3.82015625 -0.875 2.6328125 C-0.58625 1.76398438 -0.2975 0.89515625 0 0 Z " fill="#F9FAFA" transform="translate(205,75)"/>
<path d="M0 0 C0.56539517 2.18080993 1.06838701 4.35048343 1.5 6.5625 C1.97476438 9.12286851 1.97476438 9.12286851 3 12 C3.99 12.33 4.98 12.66 6 13 C5.195625 13.474375 4.39125 13.94875 3.5625 14.4375 C1.15246512 15.76900154 1.15246512 15.76900154 0 17 C-0.3931648 18.67884238 -0.74085452 20.36850045 -1.0625 22.0625 C-1.32740234 23.44115234 -1.32740234 23.44115234 -1.59765625 24.84765625 C-1.73042969 25.55792969 -1.86320313 26.26820312 -2 27 C-2.33 27 -2.66 27 -3 27 C-3 23.7 -3 20.4 -3 17 C-5.475 16.01 -5.475 16.01 -8 15 C-8 14.34 -8 13.68 -8 13 C-10.64 12.67 -13.28 12.34 -16 12 C-16 11.34 -16 10.68 -16 10 C-13.69 10.33 -11.38 10.66 -9 11 C-9 10.34 -9 9.68 -9 9 C-7.68 9 -6.36 9 -5 9 C-5 8.34 -5 7.68 -5 7 C-4.01 7 -3.02 7 -2 7 C-1.34 4.69 -0.68 2.38 0 0 Z " fill="#8295A4" transform="translate(148,79)"/>
<path d="M0 0 C1.58784831 0.23661226 3.17573868 0.47294246 4.76367188 0.70898438 C8.6137733 1.28190926 12.46328738 1.85863506 16.3125 2.4375 C14.3125 4.4375 14.3125 4.4375 12.03710938 4.48657227 C11.08642578 4.38916748 10.13574219 4.2917627 9.15625 4.19140625 C8.07730469 4.08199707 6.99835938 3.97258789 5.88671875 3.85986328 C-0.48197649 3.10727839 -6.83595091 2.25940274 -13.1875 1.375 C-15.84334484 1.0059914 -18.49961699 0.64070087 -21.15625 0.27734375 C-22.31576172 0.11613037 -23.47527344 -0.04508301 -24.66992188 -0.21118164 C-27.8433672 -0.63959523 -27.8433672 -0.63959523 -31.6875 -0.5625 C-31.6875 -1.2225 -31.6875 -1.8825 -31.6875 -2.5625 C-22.5275562 -5.6158146 -9.47205213 -1.42542035 0 0 Z " fill="#95A6B2" transform="translate(61.6875,175.5625)"/>
<path d="M0 0 C4.2866595 0.60947295 7.47443248 2.13553993 11.26171875 4.203125 C11.85241653 4.52279236 12.44311432 4.84245972 13.05171204 5.17181396 C14.93372644 6.19172995 16.81075075 7.22043309 18.6875 8.25 C21.14834631 9.59111143 23.61110766 10.92867861 26.07421875 12.265625 C26.6670163 12.58817261 27.25981384 12.91072021 27.87057495 13.24304199 C32.85663225 15.94665839 37.90227659 18.51431489 43 21 C42.01 21.66 41.02 22.32 40 23 C39.00145996 22.47043701 38.00291992 21.94087402 36.97412109 21.39526367 C33.25086432 19.420921 29.52711608 17.44750681 25.80322266 15.47436523 C24.19501655 14.62207744 22.58694183 13.7695417 20.97900391 12.91674805 C18.66083148 11.68732719 16.3421799 10.45881419 14.0234375 9.23046875 C13.31069672 8.85222458 12.59795593 8.47398041 11.86361694 8.08427429 C7.9339436 6.003782 3.98610043 3.97123845 0 2 C0 1.34 0 0.68 0 0 Z " fill="#90A1AE" transform="translate(103,187)"/>
<path d="M0 0 C1.24716797 0.14308594 2.49433594 0.28617187 3.77929688 0.43359375 C6.83258332 0.78454621 9.88525468 1.1401241 12.9375 1.5 C12.9375 2.16 12.9375 2.82 12.9375 3.5 C-1.42154185 2.80313718 -15.73708229 1.69581555 -30.0625 0.5 C-30.0625 0.17 -30.0625 -0.16 -30.0625 -0.5 C-19.8833335 -2.23262408 -10.19230593 -1.20291968 0 0 Z " fill="#99A9B5" transform="translate(119.0625,87.5)"/>
<path d="M0 0 C0.99 0.33 1.98 0.66 3 1 C-4.65000034 11.01287208 -12.30960571 21.01811125 -20 31 C-20.66 30.67 -21.32 30.34 -22 30 C-20.29412942 26.02288459 -17.62728543 22.84192417 -14.9375 19.5 C-9.83392924 13.088496 -4.88202522 6.58169326 0 0 Z " fill="#8C9EAB" transform="translate(105,18)"/>
<path d="M0 0 C-1.19227599 3.57682797 -3.04167919 4.83213244 -5.88330078 7.18066406 C-9.95432995 10.67977703 -13.6636298 14.56159691 -17.4375 18.375 C-18.26443359 19.20644531 -19.09136719 20.03789063 -19.94335938 20.89453125 C-21.96455531 22.9274104 -23.98336335 24.96259963 -26 27 C-26.99 26.67 -27.98 26.34 -29 26 C-25.36170236 22.28765288 -21.71374077 18.58518588 -18.05639648 14.89160156 C-16.81311571 13.63321627 -15.57253838 12.37215409 -14.3347168 11.10839844 C-12.55698045 9.2943527 -10.76980517 7.49009542 -8.98046875 5.6875 C-8.42723434 5.11878174 -7.87399994 4.55006348 -7.30400085 3.96411133 C-3.34161512 0 -3.34161512 0 0 0 Z " fill="#93A4B0" transform="translate(194,103)"/>
<path d="M0 0 C0.33 0 0.66 0 1 0 C1.60260061 3.96318397 2.18990314 7.92832405 2.76391602 11.89575195 C2.96070333 13.24140388 3.16145693 14.58648263 3.36645508 15.9309082 C4.52555348 23.55148423 5.33056236 30.37646349 4 38 C3.67 38 3.34 38 3 38 C2.51825263 34.37533821 2.04008617 30.75021222 1.5625 27.125 C1.42779297 26.11179688 1.29308594 25.09859375 1.15429688 24.0546875 C-1.39547154 4.65157179 -1.39547154 4.65157179 0 0 Z " fill="#94A4B1" transform="translate(87,139)"/>
<path d="M0 0 C0.33 0 0.66 0 1 0 C2.22914592 9.36126309 3.36799953 18.53423442 3 28 C2.34 28 1.68 28 1 28 C0.67 28.66 0.34 29.32 0 30 C-0.16755938 26.04924621 -0.3281242 22.09827679 -0.48217773 18.14697266 C-0.56187238 16.14079929 -0.64712518 14.13484924 -0.73242188 12.12890625 C-0.78076172 10.87207031 -0.82910156 9.61523438 -0.87890625 8.3203125 C-0.9260376 7.15773926 -0.97316895 5.99516602 -1.02172852 4.79736328 C-1 2 -1 2 0 0 Z " fill="#97A7B3" transform="translate(146,104)"/>
<path d="M0 0 C8.41217604 2.43458271 16.70386716 5.20143786 25 8 C25 8.99 25 9.98 25 11 C16.30348988 8.42867609 7.652148 5.71587276 -1 3 C-0.67 2.01 -0.34 1.02 0 0 Z " fill="#91A2AF" transform="translate(114,135)"/>
<path d="M0 0 C1.44052734 0.16048828 1.44052734 0.16048828 2.91015625 0.32421875 C9.02770787 1.10411714 15.14155276 1.90091759 21.25 2.75 C21.25 3.74 21.25 4.73 21.25 5.75 C1.28189066 3.82289294 1.28189066 3.82289294 -7.75 1.75 C-4.38021886 -0.49652076 -3.82970923 -0.44099682 0 0 Z " fill="#90A1AE" transform="translate(158.75,91.25)"/>
<path d="M0 0 C-0.33 0.99 -0.66 1.98 -1 3 C-2.2375 3.12375 -3.475 3.2475 -4.75 3.375 C-10.53953599 4.01212597 -16.26376296 5.00028356 -22 6 C-22 5.34 -22 4.68 -22 4 C-22.66 3.67 -23.32 3.34 -24 3 C-20.75290806 2.29825244 -17.50199748 1.61611931 -14.25 0.9375 C-13.32960937 0.73833984 -12.40921875 0.53917969 -11.4609375 0.33398438 C-10.57148438 0.15029297 -9.68203125 -0.03339844 -8.765625 -0.22265625 C-7.94868164 -0.39547119 -7.13173828 -0.56828613 -6.29003906 -0.74633789 C-3.89799506 -1.01129884 -2.27474929 -0.73312703 0 0 Z " fill="#92A3B0" transform="translate(201,168)"/>
<path d="M0 0 C0.99 0.33 1.98 0.66 3 1 C0.36 7.6 -2.28 14.2 -5 21 C-5.99 21 -6.98 21 -8 21 C-5.72564796 13.81783567 -2.96415819 6.9241798 0 0 Z " fill="#8EA0AD" transform="translate(88,188)"/>
<path d="M0 0 C0.33 0 0.66 0 1 0 C1.30379618 5.21379933 0.24470684 9.40886013 -1.3125 14.3125 C-1.63250977 15.40401367 -1.63250977 15.40401367 -1.95898438 16.51757812 C-2.54012836 18.37897364 -3.26109657 20.19541049 -4 22 C-4.99 22.33 -5.98 22.66 -7 23 C-1.88435374 1.88435374 -1.88435374 1.88435374 0 0 Z " fill="#94A5B1" transform="translate(163,181)"/>
<path d="M0 0 C1.93945917 2.90918876 2.41035263 4.30091003 3 7.6328125 C3.165 8.52097656 3.33 9.40914062 3.5 10.32421875 C3.83468504 12.19897794 4.16800767 14.07398084 4.5 15.94921875 C4.665 16.83480469 4.83 17.72039062 5 18.6328125 C5.144375 19.44637207 5.28875 20.25993164 5.4375 21.09814453 C5.623125 21.72575684 5.80875 22.35336914 6 23 C6.66 23.33 7.32 23.66 8 24 C6.35 23.67 4.7 23.34 3 23 C2.29995665 20.1066878 1.6146758 17.21116999 0.9375 14.3125 C0.73833984 13.49587891 0.53917969 12.67925781 0.33398438 11.83789062 C-0.64631933 7.58990788 -1.38415975 4.27435495 0 0 Z " fill="#90A1AE" transform="translate(76,98)"/>
<path d="M0 0 C-4.75 3.875 -4.75 3.875 -7 5 C-4.69 5.33 -2.38 5.66 0 6 C-0.33 6.99 -0.66 7.98 -1 9 C-1.556875 8.855625 -2.11375 8.71125 -2.6875 8.5625 C-5.11384195 7.97230872 -7.54906345 7.476571 -10 7 C-10 6.34 -10 5.68 -10 5 C-10.99 4.67 -11.98 4.34 -13 4 C-11.40233897 3.13372601 -9.79660056 2.28233535 -8.1875 1.4375 C-7.29417969 0.96183594 -6.40085937 0.48617187 -5.48046875 -0.00390625 C-3 -1 -3 -1 0 0 Z " fill="#9CABB7" transform="translate(108,173)"/>
<path d="M0 0 C2.54173977 -0.02716824 5.08318415 -0.04691969 7.625 -0.0625 C8.33785156 -0.07087891 9.05070312 -0.07925781 9.78515625 -0.08789062 C13.97344438 -0.10710296 17.8728462 0.1732673 22 1 C22 1.66 22 2.32 22 3 C19.08252927 2.8859425 16.16655505 2.75919732 13.25 2.625 C12.425 2.5940625 11.6 2.563125 10.75 2.53125 C9.95078125 2.49257812 9.1515625 2.45390625 8.328125 2.4140625 C7.5949707 2.3826416 6.86181641 2.3512207 6.10644531 2.31884766 C3.75077082 1.96227477 2.06549409 1.16337117 0 0 Z " fill="#90A1AE" transform="translate(110,88)"/>
<path d="M0 0 C-0.99 0.495 -0.99 0.495 -2 1 C-2 1.66 -2 2.32 -2 3 C-8.11090483 3.09945415 -13.97403427 3.0712828 -20 2 C-20 1.67 -20 1.34 -20 1 C-13.31184516 0.37577221 -6.71884955 -0.12920865 0 0 Z " fill="#99A8B4" transform="translate(143,176)"/>
<path d="M0 0 C4.29 0.99 8.58 1.98 13 3 C12.01 3.495 12.01 3.495 11 4 C11 4.66 11 5.32 11 6 C5.06 4.515 5.06 4.515 -1 3 C-0.67 2.01 -0.34 1.02 0 0 Z " fill="#95A6B2" transform="translate(54,48)"/>
<path d="M0 0 C0.89847656 0.00257812 1.79695313 0.00515625 2.72265625 0.0078125 C3.61855469 0.00523438 4.51445313 0.00265625 5.4375 0 C7.78515625 0.1328125 7.78515625 0.1328125 9.78515625 1.1328125 C9.78515625 1.7928125 9.78515625 2.4528125 9.78515625 3.1328125 C8.18136284 3.18697438 6.57704219 3.22567888 4.97265625 3.2578125 C4.07933594 3.28101563 3.18601562 3.30421875 2.265625 3.328125 C-0.21484375 3.1328125 -0.21484375 3.1328125 -3.21484375 1.1328125 C-2.21484375 0.1328125 -2.21484375 0.1328125 0 0 Z " fill="#95A5B1" transform="translate(40.21484375,124.8671875)"/>
<path d="M0 0 C0.66 0.66 1.32 1.32 2 2 C1.71267364 6.45355865 1.4056198 10.15100832 -1 14 C-2.33500455 8.65998179 -1.512545 5.16044765 0 0 Z " fill="#99A8B4" transform="translate(150,67)"/>
<path d="M0 0 C3.3 0.99 6.6 1.98 10 3 C10 3.99 10 4.98 10 6 C6.7 5.01 3.4 4.02 0 3 C0 2.01 0 1.02 0 0 Z " fill="#99A9B4" transform="translate(129,140)"/>
<path d="M0 0 C0.66 0.33 1.32 0.66 2 1 C1.67 5.62 1.34 10.24 1 15 C-1.09566561 10.80866878 -1.15337517 9.68835147 -0.625 5.25 C-0.51414062 4.26515625 -0.40328125 3.2803125 -0.2890625 2.265625 C-0.19367188 1.51796875 -0.09828125 0.7703125 0 0 Z " fill="#9AA9B5" transform="translate(75,61)"/>
<path d="M0 0 C0.33 0 0.66 0 1 0 C1.22211116 1.93596892 1.42722992 3.87389328 1.625 5.8125 C1.74101563 6.89144531 1.85703125 7.97039062 1.9765625 9.08203125 C2 12 2 12 0 15 C-1.33257403 4.44191344 -1.33257403 4.44191344 0 0 Z " fill="#A4B2BC" transform="translate(87,139)"/>
<path d="M0 0 C2.97 0.99 5.94 1.98 9 3 C7.68 3.33 6.36 3.66 5 4 C5 4.66 5 5.32 5 6 C4.01 5.67 3.02 5.34 2 5 C2.33 4.67 2.66 4.34 3 4 C1.68 3.34 0.36 2.68 -1 2 C-0.67 1.34 -0.34 0.68 0 0 Z " fill="#96A6B3" transform="translate(134,84)"/>
<path d="M0 0 C-0.33 0.66 -0.66 1.32 -1 2 C-3.28515625 2.6328125 -3.28515625 2.6328125 -6.0625 3.125 C-6.98160156 3.29257812 -7.90070313 3.46015625 -8.84765625 3.6328125 C-9.91306641 3.81457031 -9.91306641 3.81457031 -11 4 C-11 3.34 -11 2.68 -11 2 C-7.17679443 0.57741188 -4.08718695 -0.24042276 0 0 Z " fill="#889BA8" transform="translate(134,40)"/>
<path d="M0 0 C0.33 0.66 0.66 1.32 1 2 C-1.97 2.66 -4.94 3.32 -8 4 C-8.33 3.01 -8.66 2.02 -9 1 C-5.92677456 0.08941469 -3.19902639 -0.08886184 0 0 Z " fill="#98A8B4" transform="translate(123,43)"/>
<path d="M0 0 C0 0.99 0 1.98 0 3 C-3.3 2.67 -6.6 2.34 -10 2 C-6.00889681 0.0044484 -4.30013434 -0.19546065 0 0 Z " fill="#9DACB7" transform="translate(180,94)"/>
<path d="M0 0 C3.625 0.375 3.625 0.375 7 1 C7 1.66 7 2.32 7 3 C4.03 2.67 1.06 2.34 -2 2 C-1.34 1.34 -0.68 0.68 0 0 Z " fill="#8B9DAA" transform="translate(47,47)"/>
<path d="M0 0 C0.99 0.495 0.99 0.495 2 1 C2.33333333 2.66666667 2.66666667 4.33333333 3 6 C3.66 6.33 4.32 6.66 5 7 C3.35 6.67 1.7 6.34 0 6 C0 4.02 0 2.04 0 0 Z " fill="#96A7B3" transform="translate(79,115)"/>
<path d="M0 0 C0.66 0.66 1.32 1.32 2 2 C1.96712417 4.72869407 1.43602229 7.2966618 1 10 C-1.56687367 6.1496895 -0.83288724 4.41430237 0 0 Z " fill="#A1AFBA" transform="translate(156,44)"/>
</svg>
